<svg xmlns="http://www.w3.org/2000/svg" viewBox="0 0 320 132"><path fill="#040707" d="M118.92 67.63a51.58 51.58 0 0 1-51.58 51.58 51.58 51.58 0 0 1-51.58-51.58 51.58 51.58 0 0 1 51.58-51.58 51.58 51.58 0 0 1 51.58 51.58ZM85.93 52.44c1.56-7.42-2.63-12.3-8.88-16.04q-2.06-1.23-.44.54c5.87 6.41-4.04 8.84-4.43 14.47-.6 8.62 11.86 10.01 13.75 1.03Zm-6.12 15c-6.22-4.18-36.57-14.35-26.17-27.33q.2-.25-.1-.37c-.13-.05-.62.1-.74.23-8.48 9-7.82 23.45 3.94 29.41 5.97 3.03 35 14.81 22.59 25.57q-.27.23-.02.48l.25.26q.25.24.5.01c7.69-7.29 9.37-21.81-.25-28.26ZM61.38 84.08c.79-9.48-13.38-9.65-14.17-.8q-.96 10.68 9.2 15.12.48.21.17-.21c-5.32-7.17 4.32-8.33 4.8-14.11ZM133.74 75.48c2.23 5.7 14.41 5.58 13.97-.83-.48-7.1-15.67-1.06-18-10.74-2.95-12.32 20.61-15.08 21.96-2.59q.07.66-.59.67l-3.24.02q-.56 0-.76-.51c-2.05-5.1-11.84-5.23-12.69.18-1.18 7.51 16.99 1.38 18.15 12.26 1.33 12.43-20.65 13.84-23.57 2.03a.78.77 83 0 1 .75-.97h3.31q.52 0 .71.48ZM227.24 71.75h-7.74q-.75 0-.75-.75v-2.7q0-.7.7-.71l12.49-.13q.59 0 .64.59c.78 10.59-6.29 16.94-16.31 15.76-11.21-1.32-16.09-14.15-10.54-23.3 6.1-10.03 21.08-9.1 26.04 1.65q.36.79-.51.8l-3.46.04q-.57.01-.9-.46-3.98-5.78-11.17-4.01c-12.86 3.16-7.49 26.58 7.77 20q4-1.72 4.21-6.28.02-.5-.47-.5ZM189.23 53.95q.52 0 .52.52.01 9.13-.06 18.53c-.11 14.69-22.21 14.28-23.1 1.33q-.36-5.2.02-19.71.01-.55.56-.57l3.68-.17q.64-.03.64.61c.01 4.6-1.12 18.42.73 21.92 2.1 3.98 8.64 4.12 11.25.93 2.42-2.95 1.28-18.46 1.28-22.85q0-.59.6-.58l3.88.04ZM264.27 77.73l-12.59.03q-.53 0-.76.49l-2.34 5.11q-.18.39-.61.39h-4.36a.49.48 12.7 0 1-.44-.69l13.55-28.79a1.42 1.41-44.9 0 1 2.56 0l13.5 28.85q.3.64-.4.63l-4.24-.01q-.6 0-.85-.55l-2.32-5.01q-.2-.45-.7-.45Zm-11.23-4.72a.34.34 0 0 0 .31.47l9.23.04a.34.34 0 0 0 .31-.48l-4.57-10.67a.34.34 0 0 0-.63 0l-4.65 10.64ZM301.54 73.4l6.5 8.95a.88.88 0 0 1-.71 1.4h-3.27q-.51 0-.81-.42l-6.72-9.41q-.3-.42-.81-.42h-5.22q-.75 0-.75.75v9q0 .5-.5.5h-3.75q-.75 0-.75-.75V54.53a.38.37-88.6 0 1 .39-.38q5.85.21 11.62.05c10.96-.28 14.54 12.8 4.95 18.4q-.53.3-.17.8Zm-12.01-4.96q-.1.27-.02.53.14.5.67.51c4.39.09 12.74 1.16 12.28-5.97-.41-6.2-7.64-5.2-12.54-4.89q-.47.03-.46.49l.14 8.92q0 .21-.07.41Z"/></svg>