<?xml version="1.0" encoding="UTF-8"?>
<svg id="Layer_1" data-name="Layer 1" xmlns="http://www.w3.org/2000/svg" viewBox="0 0 960 960">
  <defs>
    <style>
      .cls-1 {
        fill: #00aeef;
      }

      .cls-1, .cls-2 {
        stroke-width: 0px;
      }

      .cls-2 {
        fill: #82c341;
      }
    </style>
  </defs>
  <path class="cls-1" d="M150.32,537.69c-15.42,0-18.93-6.85-18.93-17.68v-32.33c0-11.31-3.66-15.45-12.06-15.45s-10.84,6.21-10.84,14.97v50.47h-10.07c-11.75,0-18.01-3.98-18.01-17.68v-33.13c0-10.35-3.82-14.65-11.45-14.65-8.09,0-11.29,4.3-11.29,15.12v50.35h-10.07c-12.97,0-18.92-6.53-18.92-17.68v-30.73c0-25.48,14.04-41.72,40.75-41.72,13.12,0,23.05,8.45,25.79,15.61,3.97-6.69,14.19-15.61,26.25-15.61,24.42,0,38.91,15.12,38.91,42.52v47.62h-10.07.01Z"/>
  <path class="cls-1" d="M210.31,540.08c-16.18,0-35.86-7.96-35.86-27.87s13.43-29.3,43.95-29.3h4.12v-3.66c0-7.17-5.34-8.92-16.79-8.92-15.72,0-21.52,3.82-27.47,9.56h-.76v-10.67c0-10.83,10.84-21.66,34.8-21.66s38.31,12.26,38.31,38.06v13.54c0,31.85-9.77,40.93-40.29,40.93h0ZM223.13,501.71h-5.8c-10.99,0-15.41,2.87-15.41,8.76,0,5.57,3.36,8.43,11.45,8.43,5.19,0,9.77-2.7,9.77-10.67v-6.52Z"/>
  <path class="cls-1" d="M387.05,537.69c-15.41,0-18.93-6.85-18.93-17.68v-32.33c0-11.31-3.66-15.45-12.06-15.45s-10.83,6.21-10.83,14.97v50.47h-10.07c-11.75,0-18.01-3.98-18.01-17.68v-33.13c0-10.35-3.82-14.65-11.45-14.65-8.09,0-11.29,4.3-11.29,15.12v50.35h-10.07c-12.97,0-18.93-6.53-18.93-17.68v-30.73c0-25.48,14.04-41.72,40.75-41.72,13.12,0,23.05,8.45,25.79,15.61,3.97-6.69,14.19-15.61,26.25-15.61,24.42,0,38.91,15.12,38.91,42.52v47.62h-10.07.02Z"/>
  <path class="cls-1" d="M447.04,540.08c-16.17,0-35.86-7.96-35.86-27.87s13.43-29.3,43.95-29.3h4.12v-3.66c0-7.17-5.34-8.92-16.79-8.92-15.72,0-21.52,3.82-27.47,9.56h-.76v-10.67c0-10.83,10.84-21.66,34.79-21.66s38.31,12.26,38.31,38.06v13.54c0,31.85-9.77,40.93-40.29,40.93h0ZM459.87,501.71h-5.8c-10.99,0-15.42,2.87-15.42,8.76,0,5.57,3.36,8.43,11.45,8.43,5.19,0,9.77-2.7,9.77-10.67v-6.53h0Z"/>
  <path class="cls-2" d="M541.52,504.73h-12.52c1.68,8.76,8.54,12.9,20.61,12.9,13.43,0,21.82-2.22,26.55-5.57h1.07v7.01c0,11.15-8.7,21.18-32.66,21.18-29,0-44.25-20.39-44.25-44.59,0-26.59,17.24-48.25,43.19-48.25,21.97,0,39.07,12.9,39.07,35.19,0,17.52-12.67,22.14-41.05,22.14h0ZM543.52,470.02c-10.23,0-14.5,6.85-15.26,15.29h11.29c13.74,0,16.18-2.22,16.18-6.05,0-4.46-3.82-9.24-12.21-9.24"/>
  <path class="cls-2" d="M630.05,540.08c-16.18,0-35.87-7.96-35.87-27.87s13.43-29.3,43.95-29.3h4.12v-3.66c0-7.17-5.34-8.92-16.78-8.92-15.73,0-21.52,3.82-27.48,9.56h-.76v-10.67c0-10.83,10.83-21.66,34.8-21.66s38.31,12.26,38.31,38.06v13.54c0,31.85-9.77,40.93-40.29,40.93h0ZM642.87,501.71h-5.8c-10.99,0-15.42,2.87-15.42,8.76,0,5.57,3.36,8.43,11.45,8.43,5.19,0,9.77-2.7,9.77-10.67v-6.52Z"/>
  <path class="cls-2" d="M736.74,472.72c-3.25-1.29-6.73-1.88-10.23-1.75-7.02,0-12.52,3.66-12.52,14.33v52.39h-7.93c-12.52,0-20.15-6.05-20.15-20.7v-38.06c0-17.67,11.45-31.69,30.53-31.69,14.5,0,21.21,6.21,21.21,14.33v11.15h-.91Z"/>
  <path class="cls-2" d="M756.42,434.66c4.23-3.61,9.55-5.69,15.11-5.89h3.05v21.34h24.58v10.67c0,7.48-7.63,13.22-14.19,13.22h-10.38v31.68c-.13,1.24.02,2.5.44,3.68.41,1.18,1.08,2.26,1.95,3.15.87.9,1.93,1.59,3.1,2.03,1.17.44,2.42.62,3.67.53,4.46.3,8.93-.35,13.12-1.91h.76v11.78c0,7.32-6.41,14.01-21.52,14.01s-29.76-7.17-29.76-31.22v-54.3c.13-3.7,1.1-7.31,2.85-10.57,1.75-3.26,4.22-6.07,7.23-8.22"/>
  <path class="cls-2" d="M883.56,537.7c-15.26,0-17.86-7.48-17.86-18.31v-29.31c0-12.42-4.27-17.99-12.51-17.99-11.3,0-14.04,6.21-14.04,18.63v46.99h-9.77c-13.89,0-19.23-6.05-19.23-18.31v-99.54h9.31c12.06,0,18.93,6.05,18.93,17.36v22.61c4.27-7.01,11.29-12.26,24.57-12.26,16.94,0,31.75,13.7,31.75,37.42v52.72h-11.14Z"/>
  <path class="cls-2" d="M893.71,439.77c0-3.6,1.07-7.12,3.07-10.11,2-2.99,4.84-5.33,8.17-6.7,3.33-1.38,6.99-1.74,10.52-1.04,3.53.7,6.77,2.44,9.32,4.98,2.55,2.55,4.28,5.79,4.98,9.32.7,3.53.34,7.19-1.04,10.52-1.38,3.33-3.71,6.17-6.7,8.17-2.99,2-6.51,3.07-10.11,3.07-2.39,0-4.76-.47-6.97-1.38-2.21-.91-4.22-2.26-5.91-3.95-1.69-1.69-3.03-3.7-3.95-5.91-.91-2.21-1.38-4.58-1.38-6.97ZM897.21,439.77c0,2.91.86,5.75,2.48,8.17,1.61,2.42,3.91,4.3,6.6,5.41s5.64,1.4,8.49.84c2.85-.57,5.47-1.97,7.53-4.02,2.06-2.06,3.46-4.67,4.02-7.53.57-2.85.28-5.81-.84-8.49-1.11-2.69-3-4.98-5.41-6.6-2.42-1.62-5.26-2.48-8.17-2.48-3.9,0-7.63,1.55-10.39,4.31-2.76,2.76-4.31,6.49-4.31,10.39ZM912.42,444c-.68-1.45-1.09-1.59-2.54-1.73v6.26h-2.13c-.41.05-.83,0-1.23-.12-.4-.13-.76-.34-1.07-.62-.31-.28-.56-.62-.72-1-.17-.38-.25-.8-.24-1.21v-13.79c1.8-.51,3.66-.78,5.54-.82h2c3.85,0,6.71,2.13,6.71,5.36,0,.94-.26,1.87-.76,2.67-.5.8-1.21,1.45-2.05,1.87.77.85,1.42,1.82,1.9,2.86,1.27,2.41,1.63,2.95,2.59,3.49-.41.45-.92.8-1.49,1.03-.56.23-1.17.33-1.78.29-3.08,0-3.67-2.36-4.72-4.54h0ZM910.36,434.76c-.25,0-.5.01-.75.05v3.52c.55.05,1.16.05,1.86.05.25.02.5-.01.74-.09.24-.08.46-.21.64-.38.18-.17.33-.38.43-.61.1-.23.15-.48.15-.73,0-1.16-.6-1.81-1.96-1.81h-1.11Z"/>
</svg>