<svg id="Layer_1" data-name="Layer 1" xmlns="http://www.w3.org/2000/svg" viewBox="0 0 654.5 92.28"><title>Augustinus Bader logo - Brandlogos.net</title><path d="M58.7,384c0-.4,0-.84,0-1.28a6.58,6.58,0,0,1,13,1.33l0,.3a38.61,38.61,0,0,0,66.07,26.84A44.23,44.23,0,0,1,58.7,384ZM134,384a6.58,6.58,0,0,1,13-1.36c0,.53.13,1.69.13,1.69A6.58,6.58,0,0,1,134,384Zm-60.39,0a36.57,36.57,0,0,1,2.64-13.7A14.29,14.29,0,0,1,86.86,384v.66H87a31,31,0,0,0,53,21.3,36.77,36.77,0,0,1-66.29-22Zm45.29,0a14.29,14.29,0,0,1,10.58-13.7A36.73,36.73,0,0,1,132.15,384l.05.39a8.41,8.41,0,0,0,13.18,6.51A14.13,14.13,0,0,1,118.93,384ZM74.44,370a38.45,38.45,0,0,0-2.34,9.25,8.39,8.39,0,0,0-11.7-2.14A14.09,14.09,0,0,1,74.44,370Zm56.91,0a14.08,14.08,0,0,1,14,7.11,8.48,8.48,0,0,0-4.77-1.5,8.38,8.38,0,0,0-6.93,3.64A38.45,38.45,0,0,0,131.35,370ZM88.79,384A29,29,0,0,1,94,367.29,21.58,21.58,0,0,1,101.92,384v.66H102A23.47,23.47,0,0,0,141.76,401a29.2,29.2,0,0,1-53-17Zm15.08,0a21.61,21.61,0,0,1,7.88-16.71A29,29,0,0,1,117,384v.66h.1a16.07,16.07,0,0,0,16,15.33,15.91,15.91,0,0,0,10.43-3.9,22,22,0,0,1-5,5.3,21.42,21.42,0,0,1-12.93,4.3A21.69,21.69,0,0,1,103.87,384Zm23.51-21.6A21.71,21.71,0,0,1,143.55,372a15.86,15.86,0,0,0-12.95-3.76A38.33,38.33,0,0,0,127.38,362.4Zm-49,0a38.92,38.92,0,0,0-3.23,5.8,16,16,0,0,0-13,3.78A21.68,21.68,0,0,1,78.41,362.4ZM77,368.6a36.81,36.81,0,0,1,3.69-6.28,21.43,21.43,0,0,1,11.87,3.86,31.13,31.13,0,0,0-5,11.81A15.81,15.81,0,0,0,77,368.6Zm36.19-2.42a21.45,21.45,0,0,1,11.87-3.86,36.84,36.84,0,0,1,3.69,6.28A15.82,15.82,0,0,0,118.25,378,31.33,31.33,0,0,0,113.21,366.17Zm-18.06-.36A29.33,29.33,0,0,1,102.9,359a29.32,29.32,0,0,1,7.75,6.83,23.62,23.62,0,0,0-7.75,11.87A23.66,23.66,0,0,0,95.15,365.81ZM126,360.48a39.38,39.38,0,0,0-5.22-5.58,29.48,29.48,0,0,1,20.91,12A23.71,23.71,0,0,0,126,360.48ZM85,354.9a38.67,38.67,0,0,0-5.22,5.58,23.66,23.66,0,0,0-15.69,6.46A29.43,29.43,0,0,1,85,354.9Zm-2.93,5.64a37.29,37.29,0,0,1,6-5.78,29.21,29.21,0,0,1,13,3.2,31,31,0,0,0-7.38,6.73A23.29,23.29,0,0,0,82.09,360.54ZM104.73,358a29.39,29.39,0,0,1,13-3.2,37.31,37.31,0,0,1,6,5.78,23.39,23.39,0,0,0-11.59,4.15A31.22,31.22,0,0,0,104.73,358ZM90.52,353a36.42,36.42,0,0,1,12.37-5.1,36.18,36.18,0,0,1,12.37,5.1,31.07,31.07,0,0,0-12.37,3.81A31,31,0,0,0,90.52,353Zm27.8-.13a38.27,38.27,0,0,0-10.81-5.63A36.85,36.85,0,0,1,140,362,31.17,31.17,0,0,0,118.32,352.92Zm-23-5.74c1,0,1.94,0,2.91.11a38.27,38.27,0,0,0-10.81,5.63A31.16,31.16,0,0,0,65.86,362,36.78,36.78,0,0,1,95.37,347.18Zm5.2-7.41h.13l.78,0,1.18,0h.24a44.27,44.27,0,0,1,34.53,16.68,38.57,38.57,0,0,0-34.53-10.31,38.55,38.55,0,0,0-34.61,10.39A44.18,44.18,0,0,1,100.57,339.77Zm2.27-1.91A46.16,46.16,0,0,0,56.75,384v.11q0,.36,0,.72l0,.56h.08a46.09,46.09,0,1,0,46.07-47.51Z" transform="translate(-56.75 -337.86)" style="fill:#cf9c87"/><path d="M290.9,401.82a4.94,4.94,0,0,1-1.44-.2,1.9,1.9,0,0,1-1.11-1.17q-.43-1-.43-5.76V370.2c0-.17-.17-.3-.51-.41s-.55-.11-.64,0a28.25,28.25,0,0,1-7.82,2.9c-.27,0-.41.14-.41.31s.27.21.82.13,1.07-.14,1.58-.17a1.88,1.88,0,0,1,1.44.59q.68.63.67,4.54v17.17a18.06,18.06,0,0,1-4.57,4.48,10.07,10.07,0,0,1-5.42,1.39,6.75,6.75,0,0,1-5.34-2.51q-2.15-2.5-2.15-8V370.2c0-.17-.17-.3-.52-.41s-.56-.11-.64,0a28,28,0,0,1-7.9,2.9c-.25,0-.38.14-.38.31s.28.22.83.14,1.09-.13,1.6-.17a1.91,1.91,0,0,1,1.46.57q.69.63.69,4.51v11.9q0,7.07,2.72,10.08a9.77,9.77,0,0,0,7.64,3q6.7,0,12-7a31.23,31.23,0,0,1-.36,4.43c-.2,1.15-.3,1.82-.3,2a1,1,0,0,0,.08.47c0,.11.38.12,1,.07l2.87-.34a40.26,40.26,0,0,1,5-.25c.21,0,.32-.1.32-.29S291.4,401.82,290.9,401.82Z" transform="translate(-56.75 -337.86)" style="fill:#151515"/><path d="M418.19,363.85a3.35,3.35,0,0,0,2.41-1,3.17,3.17,0,0,0,1-2.38,3.45,3.45,0,0,0-3.42-3.44,3.18,3.18,0,0,0-2.39,1,3.38,3.38,0,0,0-1,2.43,3.22,3.22,0,0,0,1,2.38A3.26,3.26,0,0,0,418.19,363.85Z" transform="translate(-56.75 -337.86)" style="fill:#151515"/><path d="M223.83,385.9l0-.11,9-22.69,7.77,18.23Zm-.16.4.15-.37-.13.33Zm35.11,15.51h-.51a4.91,4.91,0,0,1-2-.39,7.63,7.63,0,0,1-2.35-2.63q-1.48-2.23-6.09-13.12L246,381.33l-.24-.56-.31-.74.18.42L236,357.61c-.08-.12-.29-.19-.63-.19h-.66c-.25,0-.4.07-.44.19l-11.46,28.56-.37.92-.23.58-.4,1a62.84,62.84,0,0,1-4.26,9.24q-2.09,3.9-4.67,3.9h-.25c-.25,0-.38.1-.38.29s.12.29.38.29l4.76-.13h.6l7.36.13c.52,0,.79-.13.79-.38s-.15-.37-.44-.34l-1.83.22c-2.4,0-3.6-1.09-3.6-3.21s.77-5.43,2.3-9.69l.4-1h0l.47-1.19,17.49-4.76-.2-.46.2.46,1.54,3.6v.07l.32.54q6.06,14,5,14.78a3.71,3.71,0,0,1-2.13.78h-1.36c-.25,0-.34.1-.27.29a.47.47,0,0,0,.49.29l8.11-.19.87,0,1.73.07,1.92.07c.64,0,1.15,0,1.53,0s.56-.11.56-.32S259.07,401.82,258.77,401.82Z" transform="translate(-56.75 -337.86)" style="fill:#151515"/><path d="M410.23,394.12c-.3-.12-.5-.07-.58.19a12.29,12.29,0,0,1-2.89,5,5.32,5.32,0,0,1-3.7,1.72q-4.2,0-4.2-7.1V373.63l5.9,0,1.77,0h.29q3.15-2.87,3.16-3.5c0-.15-.76-.19-2.28-.12l-6,.07H399v-6.28c0-.21-.08-.23-.25-.07l-8.26,9.5c-.11.08-.14.16-.11.24s.06.11.11.11H394v20.48q0,4.64,1.47,6.77a5.24,5.24,0,0,0,4.65,2.13,8.64,8.64,0,0,0,5.79-2.29,19.82,19.82,0,0,0,4.56-6C410.62,394.44,410.54,394.25,410.23,394.12Z" transform="translate(-56.75 -337.86)" style="fill:#151515"/><path d="M608.65,382.35q0,5.2-.41,9.31-.45,1.83-3.94,5.2t-6,3.38a6.77,6.77,0,0,1-4.6-1.87,6.22,6.22,0,0,1-2.11-4.88,6.75,6.75,0,0,1,2.3-5.15q2.29-2.11,9.45-5.08l5.29-2.27v1.36Zm10.43,14.8a.42.42,0,0,0-.65.12,8.84,8.84,0,0,1-1.7,2.4c-.76.78-1.36,1.17-1.8,1.17-.7,0-1.17-.45-1.41-1.36a16.58,16.58,0,0,1-.38-4.13l.51-14.17q0-11.75-11.42-11.74a17.2,17.2,0,0,0-6.36,1.41,40.38,40.38,0,0,0-6.17,3,5.06,5.06,0,0,0-1.65,1.55,2.87,2.87,0,0,0-.53,1.42c0,1,.87,1.48,2.62,1.48a4.92,4.92,0,0,0,1.91-.27,2.93,2.93,0,0,0,1.1-1,10.35,10.35,0,0,0,1.07-1.92A16.18,16.18,0,0,1,596.4,372c1.08-1.32,2.81-2,5.17-2s4.12.74,5.17,2.21,1.67,4.25,1.84,8.33l-5.44,2.05a100.11,100.11,0,0,0-10.47,4.93q-5.93,3.15-5.92,8.33a7.1,7.1,0,0,0,2.08,5.11,7.44,7.44,0,0,0,5.61,2.14q3.52,0,7.8-3.62a26.75,26.75,0,0,0,5.88-6.36c0,1.39,0,3.16,0,5.3q0,4.58,3.43,4.57a7.51,7.51,0,0,0,4.22-1.89,15.19,15.19,0,0,0,3.36-3.22C619.37,397.57,619.35,397.32,619.09,397.15Z" transform="translate(-56.75 -337.86)" style="fill:#151515"/><path d="M647.4,394.76a14.22,14.22,0,0,1-4.35,4.43,10.13,10.13,0,0,1-5.61,1.72,10.45,10.45,0,0,1-9-4.75,19.34,19.34,0,0,1-3.34-11.41q0-6.66,3-10.28a10.2,10.2,0,0,1,8.26-3.61,9.57,9.57,0,0,1,5.5,1.64,40.29,40.29,0,0,1,5.5,4.74Zm7.71,7.06a4.13,4.13,0,0,1-1.44-.24,1.94,1.94,0,0,1-1-1.12q-.39-.88-.39-5.78V350.32c0-.17-.19-.3-.59-.41s-.63-.11-.71,0a26.5,26.5,0,0,1-7.82,3c-.25,0-.38.16-.38.34s.12.26.38.22q2.67-.48,3.46.32c.53.52.8,2.07.8,4.64v14.11a12.42,12.42,0,0,0-7.78-3,19.48,19.48,0,0,0-13.57,5.3,17.06,17.06,0,0,0-5.79,13.1,15.21,15.21,0,0,0,4.06,10.87,13.59,13.59,0,0,0,10.36,4.3,14.59,14.59,0,0,0,6.84-1.89,16.29,16.29,0,0,0,5.89-5.33c0,1.85-.13,3.37-.27,4.56s-.21,1.89-.21,2.09c0,.51.26.7.79.56a41.67,41.67,0,0,1,7.82-.63c.25,0,.38-.09.38-.29S655.65,401.82,655.11,401.82Z" transform="translate(-56.75 -337.86)" style="fill:#151515"/><path d="M575.08,398.93q-2.91,2.88-9.39,2.89h-5.5a3,3,0,0,1-2.18-.56,5.09,5.09,0,0,1-.83-2.09q-.37-1.55-.36-13.51v-6.28H565q7,0,10,2.72t3,8.33Q578,396.05,575.08,398.93Zm-17.94-39.76a1.31,1.31,0,0,1,.9-.74,11,11,0,0,1,1.3-.07H564q6.54,0,9.53,2.05t3,7.76q0,5.72-3.14,8.09t-9.15,2.38h-7.4v-4.32l-.06-13.66A2.91,2.91,0,0,1,557.15,359.17Zm11.65,19.7q12.7-1.87,12.7-10.73,0-5.8-4.17-8.17t-12.61-2.36l-10.59.19-7.07-.19c-.25,0-.38.1-.38.29s.13.29.39.29h1.2a5,5,0,0,1,1.92.3c.48.2.87,1,1.18,2.27s.45,5.84.45,13.59v11.33q0,11.61-.45,13.58c-.3,1.32-.7,2.07-1.18,2.27a5.19,5.19,0,0,1-1.92.3h-1.2c-.26,0-.39.1-.39.29s.13.29.39.29l7.23-.19,8.79.12,3.1.07h.28q8.7,0,12.61-3.23a11,11,0,0,0,3.9-9,14.41,14.41,0,0,0-2.17-6.53C579.37,381,575.36,379.42,568.8,378.87Z" transform="translate(-56.75 -337.86)" style="fill:#151515"/><path d="M666.65,373a11.7,11.7,0,0,1,6.9-2.18,8.12,8.12,0,0,1,5.81,1.88,5.67,5.67,0,0,1,2,4.2,2.66,2.66,0,0,1-.54,1.78c-.36.42-1.23.61-2.62.6l-15.91.25A11.71,11.71,0,0,1,666.65,373ZM694,386.26c-.15-.07-.3.1-.48.47a56,56,0,0,1-4.67,7.75q-3.31,4.81-11.55,4.81-6.57,0-9.88-3a18.7,18.7,0,0,1-4.52-5.61,12.49,12.49,0,0,1-1.22-5.37,25.32,25.32,0,0,1,.51-5.18h22.09c1.62,0,2.53-.66,2.72-2a7.25,7.25,0,0,0-2.31-5.87q-2.65-2.84-8.87-2.84a16.06,16.06,0,0,0-6.66,1.45,19.76,19.76,0,0,0-9.82,9.7,16.12,16.12,0,0,0-1.54,6.93,14.9,14.9,0,0,0,4.43,11.19,15.7,15.7,0,0,0,11.42,4.3q7,0,11.11-3.67a35.54,35.54,0,0,0,6-6.59,35.16,35.16,0,0,0,2.67-4.66C693.93,386.93,694.11,386.33,694,386.26Z" transform="translate(-56.75 -337.86)" style="fill:#151515"/><path d="M708.8,369.44a7,7,0,0,0-3.94,1,17.71,17.71,0,0,0-2.68,2.23A7.3,7.3,0,0,0,700.4,376a9.29,9.29,0,0,0-1.08-3.49,8.28,8.28,0,0,0-1.47-2.13c-.38-.34-.62-.46-.68-.38a11.72,11.72,0,0,1-4.51,2.72c-.17.08-.17.21,0,.38a18.54,18.54,0,0,1,2.05,2.27,4.27,4.27,0,0,1,1,2.65v16.67q0,4.92-.62,6t-2.6,1.1c-.51,0-.76.1-.78.29s.11.29.36.29l6.65-.09,3,0,2.11.07h.66c.26,0,.38-.09.38-.29s-.12-.29-.38-.29h-3.94V380.17c0-1.37,0-2.46.12-3.28a3.68,3.68,0,0,1,.84-2.07q.71-.83,4.15-.83H708a4,4,0,0,0,2-.78,2.85,2.85,0,0,0,1.2-2.6C711.26,369.82,710.44,369.44,708.8,369.44Z" transform="translate(-56.75 -337.86)" style="fill:#151515"/><path d="M520.73,386.85a16.76,16.76,0,0,0-3.58-1.86c-1.35-.52-2.68-1-4-1.46s-3.34-1.23-6.09-2.3-4.13-2.94-4.13-5.6a4.64,4.64,0,0,1,2.46-4.07,12,12,0,0,1,6.47-1.55q5.69,0,8,3.25t2.31,9.09c0,.25.09.38.27.38s.27-.12.27-.38l.32-11.3a.48.48,0,0,0-.44-.54c-1-.12-2.16-.34-3.63-.63a39.25,39.25,0,0,0-7-.44,14.74,14.74,0,0,0-8.46,2.5,8.22,8.22,0,0,0-3.69,7.26,6.48,6.48,0,0,0,4.42,6.52q4.42,1.77,8.18,3a29.18,29.18,0,0,1,6.2,2.77,4.8,4.8,0,0,1,2.42,4.31q0,6.62-8.43,6.61-6.69,0-9.36-3.46t-2.67-10.64c0-.31-.08-.47-.26-.46s-.25.16-.25.46q0,7.78-.19,9.43c-.12,1.1-.19,1.87-.19,2.28s.15.64.44.66c.66.16,2,.6,3.93,1.28a26,26,0,0,0,8.19,1,12.84,12.84,0,0,0,8.6-2.82q3.33-2.82,3.33-6a9,9,0,0,0-1-4.72A9.23,9.23,0,0,0,520.73,386.85Z" transform="translate(-56.75 -337.86)" style="fill:#151515"/><path d="M313,373.39a14.44,14.44,0,0,1,2.11,8q0,4.77-2.09,7.46a7.19,7.19,0,0,1-6,2.68,11,11,0,0,1-5-1.64q-3-1.64-3-9.42,0-10.37,8.25-10.37A6.54,6.54,0,0,1,313,373.39Zm-.52,29.25c3.67,0,6.33.42,8,1.26a4.47,4.47,0,0,1,2.53,4.35q0,4.3-5,7.26a21.84,21.84,0,0,1-11.34,3h-.25q-5.56,0-8.64-1.83a5.54,5.54,0,0,1-3.08-4.93,7.15,7.15,0,0,1,2.59-5.44,17.59,17.59,0,0,1,6.8-3.64h8.4Zm4.84-32.18c2.66.39,4.21.58,4.67.58a4.15,4.15,0,0,0,1.82-.63A2.47,2.47,0,0,0,325,368c0-.67-.62-1-1.87-1q-.56,0-5.76,1.26a43.18,43.18,0,0,1-10.25,1.26,13.6,13.6,0,0,0-9,3.31,10.28,10.28,0,0,0-3.94,8.16q0,4.84,2.49,7.49a11.47,11.47,0,0,0,6.63,3.38,17.14,17.14,0,0,0-6.64,2.45q-2.53,1.72-2.53,4a3.26,3.26,0,0,0,2.36,3.19,19,19,0,0,0,6.25,1.06,21.86,21.86,0,0,0-7.63,4.7,9,9,0,0,0-3.19,6.56,7.32,7.32,0,0,0,2.81,5.85q2.81,2.36,7.85,2.35a24.42,24.42,0,0,0,10.29-2.41,26.12,26.12,0,0,0,8.67-6.25,11.83,11.83,0,0,0,3.43-7.9,6.09,6.09,0,0,0-2.52-5q-2.52-2-7.64-2h-8.67a33,33,0,0,1-6.44-.47c-1.44-.31-2.17-1.1-2.17-2.36a3.1,3.1,0,0,1,1.24-2q1.23-1.15,6.42-1.6h1.17a15.28,15.28,0,0,0,9.86-3.05,9.48,9.48,0,0,0,3.81-7.72,10.88,10.88,0,0,0-2.72-7.65,12.6,12.6,0,0,0-7.81-3.7v-.12A57.57,57.57,0,0,1,317.33,370.46Z" transform="translate(-56.75 -337.86)" style="fill:#151515"/><path d="M359.82,401.82a4.94,4.94,0,0,1-1.44-.2,1.9,1.9,0,0,1-1.11-1.17q-.43-1-.43-5.76V370.2c0-.17-.17-.3-.51-.41s-.55-.11-.64,0a28.25,28.25,0,0,1-7.82,2.9c-.27,0-.41.14-.41.31s.27.21.82.13,1.07-.14,1.58-.17a1.88,1.88,0,0,1,1.44.59q.68.63.67,4.54v17.17a18.05,18.05,0,0,1-4.57,4.48,10.09,10.09,0,0,1-5.42,1.39,6.75,6.75,0,0,1-5.34-2.51q-2.15-2.5-2.15-8V370.2c0-.17-.17-.3-.52-.41s-.56-.11-.64,0a28,28,0,0,1-7.9,2.9c-.25,0-.38.14-.38.31s.28.22.83.14,1.09-.13,1.6-.17a1.92,1.92,0,0,1,1.46.57q.69.63.69,4.51v11.9q0,7.07,2.72,10.08a9.77,9.77,0,0,0,7.64,3q6.7,0,12-7a31.34,31.34,0,0,1-.36,4.43c-.2,1.15-.3,1.82-.3,2a1,1,0,0,0,.08.47c0,.11.38.12,1,.07l2.87-.34a40.27,40.27,0,0,1,5-.25c.21,0,.32-.1.32-.29S360.32,401.82,359.82,401.82Z" transform="translate(-56.75 -337.86)" style="fill:#151515"/><path d="M496,401.82a4.94,4.94,0,0,1-1.44-.2,1.89,1.89,0,0,1-1.11-1.17c-.28-.64-.43-2.56-.43-5.76V370.2c0-.17-.17-.3-.51-.41s-.55-.11-.64,0a28.25,28.25,0,0,1-7.82,2.9c-.27,0-.41.14-.41.31s.27.21.82.13,1.07-.14,1.58-.17a1.87,1.87,0,0,1,1.44.59q.68.63.67,4.54v17.17a18.12,18.12,0,0,1-4.57,4.48,10.07,10.07,0,0,1-5.42,1.39,6.75,6.75,0,0,1-5.35-2.51q-2.15-2.5-2.15-8V370.2c0-.17-.17-.3-.52-.41s-.56-.11-.64,0a28,28,0,0,1-7.91,2.9c-.25,0-.38.14-.38.31s.28.22.83.14,1.09-.13,1.61-.17a1.92,1.92,0,0,1,1.46.57q.69.63.69,4.51v11.9q0,7.07,2.72,10.08a9.77,9.77,0,0,0,7.64,3q6.7,0,12-7a31,31,0,0,1-.36,4.43c-.19,1.15-.3,1.82-.3,2a1,1,0,0,0,.08.47c0,.11.38.12,1,.07l2.87-.34a40.31,40.31,0,0,1,5-.25c.21,0,.32-.1.32-.29S496.49,401.82,496,401.82Z" transform="translate(-56.75 -337.86)" style="fill:#151515"/><path d="M384.57,386.85A16.78,16.78,0,0,0,381,385c-1.35-.52-2.68-1-4-1.46s-3.34-1.23-6.09-2.3-4.13-2.94-4.13-5.6a4.64,4.64,0,0,1,2.46-4.07,12,12,0,0,1,6.47-1.55q5.68,0,8,3.25t2.32,9.09c0,.25.09.38.27.38s.27-.12.27-.38l.31-11.3a.48.48,0,0,0-.44-.54c-.95-.12-2.16-.34-3.63-.63a39.25,39.25,0,0,0-7-.44,14.73,14.73,0,0,0-8.46,2.5,8.22,8.22,0,0,0-3.69,7.26,6.48,6.48,0,0,0,4.42,6.52q4.42,1.77,8.17,3a29.27,29.27,0,0,1,6.2,2.77,4.8,4.8,0,0,1,2.41,4.31q0,6.62-8.43,6.61-6.69,0-9.36-3.46t-2.67-10.64c0-.31-.08-.47-.25-.46s-.25.16-.25.46q0,7.78-.19,9.43c-.12,1.1-.19,1.87-.19,2.28s.15.64.44.66c.65.16,2,.6,3.93,1.28a26,26,0,0,0,8.19,1,12.84,12.84,0,0,0,8.6-2.82q3.33-2.82,3.33-6a7.57,7.57,0,0,0-3.49-7.33Z" transform="translate(-56.75 -337.86)" style="fill:#151515"/><path d="M461.25,401.82a6,6,0,0,1-1.19-.11,1.94,1.94,0,0,1-1.1-.87q-.55-.76-.55-4.79V382.54q0-13.1-10.6-13.1a11.81,11.81,0,0,0-6.62,1.88,21.35,21.35,0,0,0-5.32,5.16,10.05,10.05,0,0,0-.94-3.76,9.31,9.31,0,0,0-1.73-2.65c-.17-.12-.29-.15-.38-.07a12.51,12.51,0,0,1-4.75,2.72c-.17.08-.17.21,0,.38a18.57,18.57,0,0,1,2.05,2.27,4.27,4.27,0,0,1,1,2.65V394.7a22.9,22.9,0,0,1-.44,5.95,2,2,0,0,1-2.14,1.19c-.46,0-.7.1-.71.29s.11.29.36.29l6.21-.1,2.6,0,1.8.07h.57c.25,0,.38-.1.38-.29s-.12-.29-.38-.29h-3.38v-24.6a18.06,18.06,0,0,1,4.49-4.45,9.8,9.8,0,0,1,5.4-1.42,7,7,0,0,1,5.43,2.53q2.22,2.53,2.22,8l.06,13.76q0,4.07-.66,5.11a2.61,2.61,0,0,1-2.4,1c-.46,0-.69.1-.68.29s.14.29.39.29l5.67-.1,2.84,0,2.11.07h.66c.25,0,.38-.1.38-.29S461.67,401.82,461.25,401.82Z" transform="translate(-56.75 -337.86)" style="fill:#151515"/><path d="M424.27,401.82a5.56,5.56,0,0,1-1.64-.24,2.17,2.17,0,0,1-1.24-1.12q-.49-.88-.49-5.17V369.86c0-.17-.17-.3-.52-.41s-.56-.11-.65,0a22.72,22.72,0,0,1-8.07,3.65c-.26.09-.35.23-.27.42s.24.24.49.16c1.66-.42,2.76-.38,3.32.11s.83,1.91.83,4.25v17.28c0,2.82-.21,4.62-.62,5.38s-1.36,1.15-2.85,1.15c-.59,0-.87.1-.87.29s.14.29.39.29l6.49-.1,3,0,2.4.07h.85c.25,0,.38-.1.38-.29S424.86,401.82,424.27,401.82Z" transform="translate(-56.75 -337.86)" style="fill:#151515"/></svg>