<svg id="Layer_1" data-name="Layer 1" xmlns="http://www.w3.org/2000/svg" viewBox="0 0 329.75 114.82"><title>CeraVe logo - Brandlogos.net</title><polygon points="329.75 114.7 329.75 0 186.39 0 236.81 114.7 329.75 114.7" style="fill:#0070ce"/><path d="M281.11,401.83c-6.66,6.36-13.22,10.6-23.65,10.6-16.1,0-28.25-13-28.25-30.27s12.15-30.07,28.25-30.07c8.7,0,15.58,3,23,10.06l.49.47,6.67-7.17-.48-.45c-6.62-6.25-14.79-12-29.59-12-21.9,0-38.42,16.91-38.42,39.37s16.38,39.18,38.12,39.18c15.16,0,23.84-6.74,30.34-13.32l.47-.48-6.48-6.36Z" transform="translate(-219.13 -326.59)" style="fill:#003057"/><path d="M315.62,362.63c-15.46,0-27.13,12.64-27.13,29.45s12.13,29.47,28.2,29.47c9.51,0,16.67-3.26,23.22-10.57l.44-.5L334.26,405l-.45.47c-4.94,5.17-10.31,7.58-16.91,7.58-9.92,0-17.35-6.94-18.67-17.34h43.59l.07-.59a23,23,0,0,0,.11-2.63c0-17.88-10.64-29.88-26.38-29.88m-17.39,25.69c1.3-10.31,8.28-17.45,17.18-17.45,11,0,15.92,8.88,16.87,17.45Z" transform="translate(-219.13 -326.59)" style="fill:#003057"/><path d="M378.19,373V362.84h-.64c-9.11-.38-17.11,4.55-21.88,13.18V363.78h-9.55v56.49h9.55V397.63c0-15,8.33-24.62,21.21-24.62Z" transform="translate(-219.13 -326.59)" style="fill:#003057"/><polygon points="268.21 17.66 241.98 80.92 215.86 17.66 205.01 17.66 237.7 94.21 246.05 94.21 278.74 17.66 268.21 17.66" style="fill:#fff"/><path d="M399.2,363H382v8.6H398.7c9.93.12,15.4,5.22,15.4,14.37v1a58.44,58.44,0,0,0-16.3-2.14c-15.18,0-24.25,7-24.25,18.59,0,12.34,11,18,21.26,18,9.6,0,15.67-4.23,19.29-8.3v7.13h9.25V385.89c0-14.74-8.57-22.86-24.13-22.86m-2.81,50.6c-6.35,0-13.2-3.26-13.2-10.43,0-6.79,5.77-10.85,15.44-10.85a56.67,56.67,0,0,1,15.55,2.18v4.8c0,8.14-7.64,14.27-17.79,14.27" transform="translate(-219.13 -326.59)" style="fill:#003057"/><path d="M232,440.45a3.22,3.22,0,0,1-2.31.84h-3.13v-8.92h3.13a3.18,3.18,0,0,1,2.31.84c1,1,.9,2.26.9,3.55s.06,2.72-.9,3.69m-.93-6.27a2,2,0,0,0-1.52-.6H228v6.49h1.64a1.92,1.92,0,0,0,1.52-.6c.46-.51.48-1.48.48-2.71s0-2.06-.48-2.58" transform="translate(-219.13 -326.59)" style="fill:#003057"/><polygon points="15.82 114.7 15.82 105.77 21.52 105.77 21.52 106.99 17.17 106.99 17.17 109.6 20.88 109.6 20.88 110.8 17.17 110.8 17.17 113.48 21.52 113.48 21.52 114.7 15.82 114.7" style="fill:#003057"/><polygon points="26.25 114.7 25.2 114.7 22.27 105.77 23.68 105.77 25.73 112.26 27.78 105.77 29.21 105.77 26.25 114.7" style="fill:#003057"/><polygon points="30.44 114.7 30.44 105.77 36.14 105.77 36.14 106.99 31.79 106.99 31.79 109.6 35.5 109.6 35.5 110.8 31.79 110.8 31.79 113.48 36.14 113.48 36.14 114.7 30.44 114.7" style="fill:#003057"/><polygon points="37.99 114.7 37.99 105.77 39.34 105.77 39.34 113.48 43.64 113.48 43.64 114.7 37.99 114.7" style="fill:#003057"/><path d="M269.22,440.41a3.22,3.22,0,0,1-2.35,1,3.18,3.18,0,0,1-2.34-1c-.88-.88-.87-1.87-.87-3.58s0-2.71.87-3.59a3.18,3.18,0,0,1,2.34-1,3.22,3.22,0,0,1,2.35,1c.88.88.85,1.87.85,3.59s0,2.7-.85,3.58m-1-6.35a1.84,1.84,0,0,0-1.33-.55,1.81,1.81,0,0,0-1.33.55c-.44.47-.53,1-.53,2.77s.09,2.29.53,2.77a1.85,1.85,0,0,0,1.33.55,1.88,1.88,0,0,0,1.33-.55c.43-.48.52-1,.52-2.77s-.09-2.3-.52-2.77" transform="translate(-219.13 -326.59)" style="fill:#003057"/><path d="M275.46,437.78h-2v3.51h-1.38v-8.92h3.38a2.71,2.71,0,1,1,.33,5.41h-.33m-.1-4.15h-2v3h2a1.5,1.5,0,0,0,0-3" transform="translate(-219.13 -326.59)" style="fill:#003057"/><polygon points="60.83 114.7 60.83 105.77 66.53 105.77 66.53 106.99 62.18 106.99 62.18 109.6 65.89 109.6 65.89 110.8 62.18 110.8 62.18 113.48 66.53 113.48 66.53 114.7 60.83 114.7" style="fill:#003057"/><path d="M292.95,440.45a3.22,3.22,0,0,1-2.31.84h-3.13v-8.92h3.13a3.18,3.18,0,0,1,2.31.84c1,1,.9,2.26.9,3.55s.06,2.72-.9,3.69m-.93-6.27a2,2,0,0,0-1.52-.6h-1.64v6.49h1.64a1.92,1.92,0,0,0,1.52-.6c.46-.51.47-1.48.47-2.71s0-2.06-.47-2.58" transform="translate(-219.13 -326.59)" style="fill:#003057"/><polygon points="87.01 114.7 85.83 114.7 84.01 108.44 82.21 114.7 81.03 114.7 78.7 105.77 80.13 105.77 81.68 112.15 83.47 105.77 84.56 105.77 86.36 112.15 87.91 105.77 89.34 105.77 87.01 114.7" style="fill:#003057"/><rect x="90.64" y="105.78" width="1.35" height="8.92" style="fill:#003057"/><polygon points="97.34 106.99 97.34 114.7 95.98 114.7 95.98 106.99 93.53 106.99 93.53 105.77 99.79 105.77 99.79 106.99 97.34 106.99" style="fill:#003057"/><polygon points="106.31 114.7 106.31 110.8 102.68 110.8 102.68 114.7 101.33 114.7 101.33 105.77 102.68 105.77 102.68 109.59 106.31 109.59 106.31 105.77 107.66 105.77 107.66 114.7 106.31 114.7" style="fill:#003057"/><path d="M337.56,440.45a3.19,3.19,0,0,1-2.3.84h-3.14v-8.92h3.14a3.15,3.15,0,0,1,2.3.84c1,1,.9,2.26.9,3.55s.07,2.72-.9,3.69m-.93-6.27a1.92,1.92,0,0,0-1.51-.6h-1.64v6.49h1.64a1.88,1.88,0,0,0,1.51-.6c.47-.51.48-1.48.48-2.71s0-2.06-.48-2.58" transform="translate(-219.13 -326.59)" style="fill:#003057"/><polygon points="121.34 114.7 121.34 105.77 127.04 105.77 127.04 106.99 122.69 106.99 122.69 109.6 126.4 109.6 126.4 110.8 122.69 110.8 122.69 113.48 127.04 113.48 127.04 114.7 121.34 114.7" style="fill:#003057"/><path d="M352.94,441.29l-1.88-3.76h-1.7v3.76H348v-8.92h3.46a2.55,2.55,0,0,1,2.77,2.6,2.35,2.35,0,0,1-1.78,2.37l2,4Zm-1.58-7.66h-2v2.79h2a1.4,1.4,0,1,0,.24-2.79h-.24" transform="translate(-219.13 -326.59)" style="fill:#003057"/><polygon points="143.61 114.7 143.61 108.73 141.55 113.08 140.55 113.08 138.45 108.73 138.45 114.7 137.09 114.7 137.09 105.77 138.45 105.77 141.05 111.33 143.61 105.77 144.96 105.77 144.96 114.7 143.61 114.7" style="fill:#003057"/><path d="M371.53,441.29l-.61-1.8h-3.56l-.62,1.8h-1.38l3.27-8.93h1.09l3.27,8.93Zm-2.34-6.91-1.39,4h2.74Z" transform="translate(-219.13 -326.59)" style="fill:#003057"/><polygon points="157.37 106.99 157.37 114.7 156.02 114.7 156.02 106.99 153.56 106.99 153.56 105.77 159.83 105.77 159.83 106.99 157.37 106.99" style="fill:#003057"/><path d="M385.49,440.41a3.26,3.26,0,0,1-2.36,1,3.2,3.2,0,0,1-2.34-1c-.88-.88-.87-1.87-.87-3.58s0-2.71.87-3.59a3.2,3.2,0,0,1,2.34-1,3.26,3.26,0,0,1,2.36,1c.87.88.85,1.87.85,3.59s0,2.7-.85,3.58m-1-6.35a1.84,1.84,0,0,0-1.33-.55,1.81,1.81,0,0,0-1.33.55c-.44.47-.52,1-.52,2.77s.08,2.29.52,2.77a1.85,1.85,0,0,0,1.33.55,1.88,1.88,0,0,0,1.33-.55c.44-.48.52-1,.52-2.77s-.08-2.3-.52-2.77" transform="translate(-219.13 -326.59)" style="fill:#003057"/><polygon points="169.21 114.7 169.21 105.77 170.56 105.77 170.56 113.48 174.86 113.48 174.86 114.7 169.21 114.7" style="fill:#003057"/><path d="M400.44,440.41a3.38,3.38,0,0,1-4.7,0c-.88-.88-.86-1.87-.86-3.58s0-2.71.86-3.59a3.38,3.38,0,0,1,4.7,0c.88.88.85,1.87.85,3.59s0,2.7-.85,3.58m-1-6.35a1.87,1.87,0,0,0-2.64,0h0c-.44.47-.53,1-.53,2.77s.09,2.29.53,2.77a1.87,1.87,0,0,0,2.64,0h0c.44-.48.53-1,.53-2.77s-.09-2.3-.53-2.77" transform="translate(-219.13 -326.59)" style="fill:#003057"/><path d="M408.63,440.35a3.23,3.23,0,0,1-2.45,1,3.27,3.27,0,0,1-2.35-1c-.87-.88-.86-1.87-.86-3.59s0-2.7.86-3.58a3.24,3.24,0,0,1,2.35-1,3.13,3.13,0,0,1,3.24,2.77h-1.36a1.82,1.82,0,0,0-1.88-1.55,1.78,1.78,0,0,0-1.32.55c-.44.47-.54,1-.54,2.76s.1,2.31.54,2.79a1.78,1.78,0,0,0,1.32.54,1.89,1.89,0,0,0,1.45-.63,2,2,0,0,0,.45-1.4v-.38h-1.9v-1.15h3.26v1.37a3.35,3.35,0,0,1-.81,2.52" transform="translate(-219.13 -326.59)" style="fill:#003057"/><rect x="192.29" y="105.78" width="1.35" height="8.92" style="fill:#003057"/><path d="M417.48,441.36a4,4,0,0,1-3.16-1.18l.9-.89a2.92,2.92,0,0,0,2.28.86c1.17,0,1.84-.5,1.84-1.37a1.21,1.21,0,0,0-.35-.93,1.52,1.52,0,0,0-1-.37l-1.06-.15a3,3,0,0,1-1.69-.72,2.21,2.21,0,0,1-.65-1.7c0-1.56,1.13-2.62,3-2.62a3.74,3.74,0,0,1,2.77,1l-.87.86a2.57,2.57,0,0,0-1.94-.69,1.45,1.45,0,0,0-1.63,1.39,1.08,1.08,0,0,0,.34.83,2.08,2.08,0,0,0,1,.41l1,.15a2.92,2.92,0,0,1,1.67.66,2.37,2.37,0,0,1,.72,1.83c0,1.64-1.34,2.62-3.2,2.62" transform="translate(-219.13 -326.59)" style="fill:#003057"/><polygon points="206.39 106.99 206.39 114.7 205.03 114.7 205.03 106.99 202.58 106.99 202.58 105.77 208.84 105.77 208.84 106.99 206.39 106.99" style="fill:#003057"/><path d="M431.88,441.36a4,4,0,0,1-3.16-1.18l.9-.89a2.94,2.94,0,0,0,2.28.86c1.17,0,1.85-.5,1.85-1.37a1.21,1.21,0,0,0-.36-.93,1.52,1.52,0,0,0-1-.37l-1-.15a3,3,0,0,1-1.7-.72,2.21,2.21,0,0,1-.65-1.7c0-1.56,1.13-2.62,3-2.62a3.72,3.72,0,0,1,2.77,1l-.86.86a2.6,2.6,0,0,0-1.94-.69c-1.06,0-1.63.6-1.63,1.39a1.08,1.08,0,0,0,.34.83,2,2,0,0,0,1,.41l1,.15a2.92,2.92,0,0,1,1.67.66,2.34,2.34,0,0,1,.73,1.83c0,1.64-1.34,2.62-3.21,2.62" transform="translate(-219.13 -326.59)" style="fill:#003057"/><path d="M511.15,362.63c-15.46,0-27.12,12.67-27.12,29.48s12.12,29.47,28.19,29.47c9.51,0,16.67-3.26,23.22-10.57l.45-.5L529.8,405l-.45.47c-4.93,5.17-10.3,7.58-16.9,7.58-9.93,0-17.35-6.94-18.68-17.34h43.59l.07-.59a23,23,0,0,0,.11-2.63c0-17.91-10.6-29.91-26.38-29.91m16.66,25.72h-34C495.12,378,502.11,370.9,511,370.9c11,0,15.93,8.88,16.87,17.45" transform="translate(-219.13 -326.59)" style="fill:#fff"/><path d="M529.58,360.13a7.88,7.88,0,0,1-7.91-7.85s0,0,0-.07a7.94,7.94,0,1,1,8,7.92h0m0-15a7.06,7.06,0,1,0,7,7.12s0-.08,0-.12a7,7,0,0,0-7-7m2,8,2.06,3h-2.17l-1.8-2.72H528.2v2.72h-1.84v-8.39h3.75c2,0,3.31,1,3.31,2.79a2.62,2.62,0,0,1-1.82,2.62M530,349.39h-1.82v2.47h1.87c.94,0,1.45-.5,1.45-1.23s-.58-1.24-1.5-1.24" transform="translate(-219.13 -326.59)" style="fill:#fff"/></svg>