<?xml version="1.0" encoding="UTF-8"?><svg id="Layer_1" xmlns="http://www.w3.org/2000/svg" xmlns:xlink="http://www.w3.org/1999/xlink" viewBox="0 0 471.04 69.4"><defs><style>.cls-1{mask:url(#mask);}.cls-2{fill:#fff;}.cls-2,.cls-3{fill-rule:evenodd;}.cls-3{fill:#311212;}.cls-4{mask:url(#mask-2);}.cls-5{mask:url(#mask-1);}</style><mask id="mask" x="0" y="0" width="471.04" height="69.4" maskUnits="userSpaceOnUse"><g id="b"><path id="a" class="cls-2" d="M0,69.4h471.04V0H0v69.4Z"/></g></mask><mask id="mask-1" x="0" y="0" width="471.04" height="69.4" maskUnits="userSpaceOnUse"><g id="b-2"><path id="a-2" class="cls-2" d="M0,69.4h471.04V0H0v69.4Z"/></g></mask><mask id="mask-2" x="0" y="0" width="471.04" height="69.4" maskUnits="userSpaceOnUse"><g id="b-3"><path id="a-3" class="cls-2" d="M0,69.4h471.04V0H0v69.4Z"/></g></mask></defs><path class="cls-3" d="M113.7,33.39c-1.26.7-2.58,1.3-3.94,1.8-.52.2-1.02.41-1.5.62-2.61,1.13-4.88,2.91-6.59,5.18-1.19,1.86-1.4,4.18-.57,6.22.91,1.93,2.9,3.12,5.03,3,3.81,0,6.74-1.95,7.75-4.8-.12-1.01-.17-2.96-.17-4.16,0-2.14,0-5.73,0-7.85h0s0,0,0,0ZM104.8,54.36c-.65,0-1.3-.04-1.95-.12-3.42-.37-6.29-.97-8.07-3.18-1.88-2.43-2.6-5.57-1.97-8.58.91-4.57,4.87-6.04,8.21-7.54,1.76-.78,3.65-1.46,5.16-2.01l1.9-.7c1.57-.48,3.06-1.21,4.42-2.15.77-.62,1.12-2.4.97-3.49-.19-1.39-1.43-4.49-4.69-4.48-5.61,0-6.94,4.73-7.73,7.49l-6.24-2.5c2.12-5.07,7.58-8.56,13.68-8.56,2.06-.02,4.1.38,6.01,1.16,5.05,2.16,7.28,5.52,7.01,11.36v12.76c0,1.83,0,6.01,1.42,6.96.77.54,1.8.54,2.58,0v1.16c-.59,1.17-1.82,1.88-3.13,1.81-1.15-.01-2.27-.28-3.3-.79-1.56-.72-2.89-1.87-3.81-3.33-2.6,3.07-6.46,4.8-10.48,4.7h0ZM390.81,54.38c-8.12,0-12.59-3.83-12.59-12.32v-22.86h7.59v22.81c0,6.09,3.67,7.62,6.42,7.62,3.33,0,6.4-1.24,7.84-4.47v-25.96h7.63v34.52h-7.59v-3.9c-2.4,2.44-5.58,4.56-9.3,4.56M128.79,53.73V19.2h7.58v4.89c2.83-3.05,6.17-5.12,10.87-5.04v7.23c-1.1-.37-2.26-.56-3.42-.57-3.2,0-5.92.33-7.44,2.89v25.14h-7.59s0,0,0,0ZM81.25,53.73v-19.78c0-4.99-.72-6.81-1.8-7.99-1.08-1.18-2.71-2.57-4.76-2.57-4.16,0-7.26,1.19-8.73,4.87v25.47h-7.59V.71h7.58v22.73c2.5-2.58,5.91-4.82,9.87-4.82s7.33.38,9.52,2.59c2.5,2.5,3.48,5.98,3.48,12.03v20.49s-7.59,0-7.59,0Z"/><g class="cls-1"><path class="cls-3" d="M151.19,53.72h7.59V.71h-7.59v53.01ZM180.48,22.16c-6.94,0-10.58,7.6-10.58,14.29s3.63,14.35,10.58,14.35c4.01,0,6.45-3.08,7.78-4.99,1.86-2.77,2.84-6.04,2.79-9.38,0-6.66-3.63-14.26-10.58-14.26h0ZM180.48,54.38c-10.96,0-18.3-6.71-18.3-17.93s7.36-17.87,18.3-17.87,18.3,6.65,18.3,17.87c.03,11.05-7.5,17.93-18.3,17.93ZM233.51,54.38c-5.61,0-8.97-2.5-8.97-8.13v-23.43h-6.6c-1.38,0-2.83,0-4.6.09v22.61c0,3.26.97,4.44,3.04,4.45,2.01.05,3.99-.48,5.71-1.53l1.13,1.44c-2.42,3.04-5.04,4.47-8.52,4.47-5.61,0-8.95-2.5-8.95-8.12v-23.03c-3.49.15-6.03.31-6.57.35l-2.5.24,3.29-4.61h5.76v-6.17l7.59-6.85v13.03h11.19v-6.18l7.59-6.86v13.04h10.69l2.5,4.23-1.97-.16c-1.66-.1-5.29-.26-11.21-.32v22.61c0,3.27.98,4.39,3.06,4.46,2.02.06,4.02-.47,5.74-1.53l1.11,1.46c-2.41,2.99-5.04,4.44-8.53,4.44"/></g><g class="cls-5"><path class="cls-3" d="M269.55,29.7c-1.04-6.15-5.15-7.67-7.49-7.67-4.99,0-7.76,3.14-9.15,7.67h16.63ZM261.97,54.38c-10.7,0-17.88-6.91-17.88-18.45,0-10.55,7.49-17.37,17.82-17.37,8.53,0,14.69,4.92,15.35,13.46l.2,1.31h-25.57c0,1.33-.05,1.87-.05,2.5,0,8.08,4.44,13.93,11.59,13.93,6.13,0,9.25-2.35,11.2-4.28l1.48,1.37c-3.26,4.9-7.66,7.53-14.14,7.53ZM326.51,53.76h7.59V.76h-7.59v53ZM348.48,48.09c2.26,1.2,4.78,1.84,7.34,1.85,6.92,0,11.05-5.56,11.05-13.46s-4.11-13.31-10.99-13.31c-2.62-.01-5.18.71-7.41,2.08v22.86-.03ZM357.48,54.38c-3.24-.1-6.37-1.16-9-3.05v2.37h-7.59V.72h7.59v21.11c2.58-1.75,5.72-3.12,8.8-3.12,10.21,0,17.34,6.82,17.34,17.77,0,11.2-6.85,17.9-17.14,17.9h0ZM412.26,19.34l7.58-.18v4.93c2.5-2.68,5.89-4.99,10.11-4.99l3.84,8.5s-3.52-1.87-6.54-1.87c-3.23,0-6.09.32-7.4,2.96v25.03l-7.58.17V19.34h0ZM312.26,53.72h7.11v-31.46h-7.11v31.46ZM311.9,13.65l3.91-6.01,3.93,6.03-3.93,5.99-3.9-6.01Z"/></g><g class="cls-4"><path class="cls-3" d="M291.57,53.73V4.92c-4.01,0-10.31.13-19.39.49l-3.7.14,4.09-4.76h44.01l.47.27,3.22,4.56-3.33-.21c-1.99-.12-9.15-.52-17.6-.52h-.19v48.83h-7.58ZM440.06,69.38l1.11-1.85c.77-1.28,5.38-9.3,8.99-16.78-.9-2.01-14.58-31.61-14.58-31.61h8.32l10.06,24.69,10.75-24.68h6.34l-1.07,2.29-21.69,47.95h-8.22v-.02h0ZM29.18,55.23c-8.47,0-16.43-2.61-21.86-8.61C-3.11,35.2-2.3,17.49,9.13,7.06c.39-.36.79-.7,1.2-1.03C15.65,1.61,22.45,0,29.46,0c8.82,0,17.03,2.99,23,10.18l-6.1,4.61c-3.24-4.66-7.39-8.68-11.57-9.93-1.75-.53-3.57-.82-5.41-.83-3.32.05-6.57.93-9.46,2.55-5.62,3.16-9.27,9.87-10.52,16.92-1.13,7.29.96,14.71,5.73,20.34,3.63,4.21,8.76,7.08,14.51,7.08,1.18,0,2.36-.1,3.53-.32,5.95-1.09,11.14-6.04,14.56-12.16l7.42,2.84c-5.15,8.63-15.4,13.95-25.97,13.95"/></g></svg>