<?xml version="1.0" encoding="UTF-8"?><svg id="Layer_1" xmlns="http://www.w3.org/2000/svg" viewBox="0 0 243 139.5"><defs><style>.cls-1{fill:#45474a;}</style></defs><path class="cls-1" d="M191.41,58.13c.67-.8,1.94-2.44,2.59-3.34.3-.37.5-.77.5-1.1,0-.45-.35-.92-1.04-.92-.47,0-.87.35-1.12.6-.07.07-.18.07-.27,0l-.47-.47c-.07-.08-.1-.17,0-.27,0,0,.77-.97,1.97-.97,1.45,0,2.27.9,2.27,1.99,0,.65-.3,1.07-.67,1.62-.45.62-1.2,1.54-1.74,2.24h2.17c.1,0,.2.1.2.2v.7c0,.1-.08.2-.2.2h-3.93c-.12,0-.2-.08-.2-.2v-.27h-.02Z"/><path class="cls-1" d="M197.73,55.14c0-2.19.92-3.51,2.51-3.51s2.54,1.32,2.54,3.51-.92,3.49-2.54,3.49c-1.59.03-2.51-1.29-2.51-3.49ZM201.49,55.14c0-1.49-.45-2.34-1.22-2.34s-1.22.85-1.22,2.34.45,2.32,1.22,2.32,1.22-.82,1.22-2.32Z"/><path class="cls-1" d="M205.65,53.55l-.9.2c-.08.03-.17-.05-.2-.12l-.07-.5c-.02-.07,0-.15.05-.17l1.44-1.22h.7c.1,0,.17.1.17.2v6.45c0,.1-.07.17-.17.17h-.85c-.12,0-.2-.08-.2-.17v-4.83h.03Z"/><path class="cls-1" d="M208.94,58.13c.67-.8,1.94-2.44,2.61-3.34.3-.37.5-.77.5-1.1,0-.45-.32-.92-1.05-.92-.47,0-.9.35-1.12.6-.1.07-.2.07-.27,0l-.47-.47c-.07-.08-.1-.17-.02-.27,0,0,.77-.97,1.97-.97,1.44,0,2.24.9,2.24,1.99,0,.65-.3,1.07-.67,1.62-.42.62-1.2,1.54-1.72,2.24h2.17c.1,0,.2.1.2.2v.7c0,.1-.07.2-.2.2h-3.93c-.12,0-.2-.08-.2-.2v-.27h-.02Z"/><path class="cls-1" d="M91.01,4.94c-4.58-.67-8.12-.4-13.2,2.29-1.34.75-4.06,2.64-6.1,5.88-2.12,3.21-3.46,7.54-4.01,11.7-1.02,8.39-.08,15.89-.25,15.86-.17-.03.82,7.54-1.52,15.31-2.14,7.89-8.02,14.82-10.31,16.53-2.02,1.77-3.74,2.94-5.5,3.83-1.77.87-3.56,1.67-5.88,1.37,2.22.85,4.38.5,6.4-.17,2.02-.67,4.01-1.82,6.17-3.69,2.47-1.84,8.64-9.09,10.86-17.36,2.44-8.19,1.42-15.94,1.59-15.86.17,0-.72-7.54.25-15.56.55-3.98,1.79-8.07,3.73-10.98,1.89-2.99,4.28-4.61,5.5-5.33,4.63-2.49,7.67-3.39,12.25-3.83Z"/><path class="cls-1" d="M100.5,3.85c3.09.42,5.25.47,8.89-.05,1.99-.25,7.89-1.34,13.27-1.82,5.4-.52,10.21.32,10.18.37-.05,0,4.91.7,9.21,3.83,4.48,2.99,7.37,8.22,7.74,10.04,1.05,3.39,1.54,5.33,1.97,8.44.72-3.01.85-5.33-.27-8.96-.42-2.07-3.59-7.74-8.39-10.93-4.66-3.46-9.99-4.18-9.91-4.18.02-.05-5.1-.97-10.66-.4-5.55.45-11.43,1.57-13.4,1.84-3.61.55-5.6,1.1-8.64,1.82Z"/><path class="cls-1" d="M109.49,9.55c2.22,2.46,3.96,3.81,7.12,6.05,1.67,1.22,7.1,4.63,10.06,9.39,1.52,2.34,2.37,4.88,2.51,6.75.15,1.87-.3,3.01-.3,3.01,0-.03-.22,1.17-1.44,2.56-1.19,1.42-3.49,2.81-6.08,3.98-5.2,2.32-11.18,4.81-12.9,6.2-3.31,2.22-4.73,3.91-7,6.3,2.96-1.47,4.81-2.71,7.99-4.81,1.59-1.29,7.32-3.69,12.7-6.08,2.64-1.22,5.2-2.71,6.65-4.46,1.49-1.72,1.82-3.26,1.82-3.24-.02,0,.52-1.42.35-3.64-.15-2.22-1.15-5.03-2.76-7.54-3.26-5.2-8.91-8.67-10.56-9.89-3.21-2.22-5.3-3.09-8.17-4.61Z"/><path class="cls-1" d="M80.08,28.25c.67-.42,1.05-.62,1.27-1.12.12-.25.55-1.02,1.22-1.52.62-.52,1.37-.8,1.37-.8-.07-.17,3.11-.77,3.81-.62.62,0,.97-.27,1.57-.77-.47-.62-.85-.97-1.54-1-.75-.22-4.53.55-4.51.75,0,.03-.95.35-1.82,1.07-.92.7-1.54,1.82-1.72,2.19-.3.67-.1,1.2.35,1.82Z"/><path class="cls-1" d="M82.62,27.18c.37.52.62.8,1,.75.4,0,2.37-.55,2.37-.6-.03.1,2.02-.77,2.32-1.19.3-.3.25-.67.03-1.27-.62-.17-.95-.25-1.17-.07-.17.25-1.67.9-1.74.9,0,.03-1.74.47-2.09.52-.32.02-.47.37-.7.97Z"/><path class="cls-1" d="M90.04,45.51c-2.86,1.27-4.23,3.36-5.78,6.62-.87,1.82-2.84,7.44-3.98,12.77-1.27,5.33-1.44,10.31-1.54,10.28.07-.03-.8,4.93-.25,10.46.27,5.35,1.12,11.33,1.82,13.25,1.07,3.56,2.49,5.5,5,7.27-1.67-2.57-2.27-4.41-3.29-7.77-.65-1.79-1.44-7.5-1.77-12.92-.52-5.28.32-10.08.25-10.11.12,0,.25-4.88,1.49-10.06,1.12-5.23,3.06-10.73,3.88-12.45,1.52-3.19,2.02-5.15,4.16-7.35Z"/><path class="cls-1" d="M97.09,60.47c.65,2.29,1.02,3.76,2.27,6.28.72,1.22,2.49,5.23,3.11,9.21.72,3.93.65,7.64.67,7.62,0,0,.03,3.66-.35,7.72-.32,4.06-.97,8.44-1.27,9.86-.5,2.66-.6,4.18-.77,6.55,1.27-1.99,1.97-3.49,2.51-6.22.32-1.49,1-5.95,1.32-10.06.4-4.11.35-7.89.35-7.89,0,0,.07-3.78-.67-7.94-.65-4.16-2.54-8.42-3.31-9.74-1.25-2.34-2.24-3.66-3.86-5.38Z"/><path class="cls-1" d="M141.65,52.05c.92,3.04,1.79,5.7,2.94,8.69.6,1.59,1.69,5.23,2.42,9.84.75,4.61.05,8.86.05,8.86.02,0-.57,4.23-2.09,8.72-1.47,4.51-3.49,9.31-4.08,10.96-.82,2.19-1.77,3.41-2.07,5.13-.18,1.97-.05,1.59.22,2.44,1.49-2.29,2.37-3.93,3.51-6.9.6-1.62,2.64-6.45,4.13-11.06,1.57-4.61,2.19-9.04,2.17-9.04,0,.03.75-4.46-.05-9.36-.75-4.88-2.57-8.57-3.19-10.18-1.2-3.06-2.39-5.85-3.96-8.09Z"/><path class="cls-1" d="M154.55,30.22c2.79-.05,4.68.15,7.55,1.02,1.44.47,5.8,3.76,8.02,8.04,2.34,4.18,3.39,8.59,3.44,8.57.05-.03,1.15,4.28,2.44,9.11,1.19,4.86,3.68,9.91,4.81,11.4,1.84,2.81,3.44,4.23,5.98,5.48-1.84-2.12-2.71-3.71-4.48-6.42-1.02-1.42-3.36-6.15-4.56-10.93-1.29-4.73-2.44-9.14-2.46-9.14-.05.03-1.07-4.46-3.59-8.94-2.39-4.63-6.95-8.17-8.91-8.84-3.51-1.07-5.63-.5-8.22.65Z"/><path class="cls-1" d="M154.9,54.64c.25,2.12.23,3.46.4,5.85.17,1.3-.07,5.23-.12,9.01,0,3.79.7,7.17.7,7.17-.02,0,.6,3.41,2.04,6.92,1.44,3.54,3.79,6.95,4.71,8.02,1.64,1.99,3.01,2.76,5.03,3.49-1.37-1.67-2.14-2.76-3.66-4.61-.82-.97-3.09-4.26-4.46-7.59-1.37-3.34-1.97-6.57-1.94-6.57,0,0-.67-3.24-.67-6.85.07-3.61.3-7.74.12-9.14-.18-2.54-.87-4.01-2.14-5.7Z"/><path class="cls-1" d="M27.64,51.73c0-.1.08-.2.17-.2h4.08c.12,0,.2.1.2.2v.82c0,.1-.07.2-.2.2h-2.96v1.64h2.49c.1,0,.2.1.2.17v.82c0,.1-.1.2-.2.2h-2.49v1.77h2.96c.12,0,.2.1.2.17v.82c0,.1-.07.17-.2.17h-4.08c-.1,0-.17-.08-.17-.17v-6.62Z"/><path class="cls-1" d="M33.81,57.56l.37-.62c.1-.15.25-.15.35-.08.05.03.87.62,1.52.62.52,0,.92-.35.92-.77,0-.5-.42-.87-1.27-1.19-.95-.37-1.89-.97-1.89-2.17,0-.9.65-1.92,2.27-1.92,1.02,0,1.79.52,1.99.67.1.05.12.22.05.32l-.37.57c-.08.12-.25.2-.35.12-.08-.05-.85-.55-1.39-.55s-.87.4-.87.72c0,.47.37.8,1.17,1.12,1,.37,2.09.97,2.09,2.27,0,1.05-.9,1.99-2.29,1.99-1.27,0-2.02-.57-2.22-.77-.1-.12-.15-.17-.07-.35Z"/><path class="cls-1" d="M41.41,52.73h-1.54c-.1,0-.2-.1-.2-.2v-.8c0-.1.1-.2.2-.2h4.38c.1,0,.17.1.17.2v.82c0,.1-.08.2-.17.2h-1.54v5.63c0,.1-.08.17-.2.17h-.92c-.1,0-.2-.08-.2-.17v-5.65h.03Z"/><path class="cls-1" d="M45.59,51.53c0-.1.05-.15.12-.15h1.72c1.37,0,2.49,1.12,2.49,2.49s-1.12,2.49-2.49,2.49h-1.72c-.07,0-.12-.08-.12-.12v-4.71ZM47.36,55.29c.8,0,1.37-.65,1.37-1.44s-.57-1.44-1.37-1.44h-.67v2.86h.67v.03Z"/><path class="cls-1" d="M49.5,57.86h-4.16v.75h4.16v-.75Z"/><path class="cls-1" d="M228.66,131.78h1v-4.73h-.25c-.77,0-.95.25-1.27,1.82h-.75v-2.51h6.1v2.51h-.75c-.35-1.54-.5-1.82-1.29-1.82h-.22v4.73h.97v.82h-3.51v-.82h-.03Z"/><path class="cls-1" d="M234.38,131.78h.82v-4.61h-.82v-.82h3.01l1.35,3.86h.02l1.27-3.86h2.96v.82h-.85v4.61h.85v.85h-3.16v-.85h.77v-4.41h-.07l-1.87,5.25h-.62l-1.92-5.25h-.08v4.41h.8v.85h-2.47v-.85Z"/><path class="cls-1" d="M0,137.79h1.94v-9.64H0v-1.42h5.48c4.83,0,7.22,2.47,7.22,6.1s-2.22,6.37-7.1,6.37H0v-1.42ZM5.7,137.79c3.01,0,4.26-1.29,4.26-4.98,0-3.31-1.27-4.71-4.41-4.71h-1.17v9.69h1.32Z"/><path class="cls-1" d="M21.76,137.76h1.94v1.44h-6.32v-1.44h1.94v-9.64h-1.94v-1.42h6.47c3.78,0,4.91,1.62,4.91,3.21,0,1.39-.85,2.69-3.46,3.06v.15c2.12.35,2.79,1.32,2.86,2.71l.07,1.12c.05.67.22.9.57.9.3,0,.52-.27.8-.95l.97.37c-.37,1.24-1.12,2.12-2.41,2.12-1.49,0-2.47-.72-2.52-2.59l-.02-1.17c-.03-1.32-.32-1.94-1.97-1.94h-1.92v4.06h.02ZM23.63,132.41c1.79,0,2.42-.77,2.42-2.27,0-1.32-.52-2.04-2.24-2.04h-2.04v4.31h1.87Z"/><path class="cls-1" d="M35.56,135.2v-7.05h-1.74v-1.42h6v1.42h-1.79v6.5c0,2.37,1.12,3.24,3.26,3.24.97,0,1.62-.3,2.14-.82.62-.6.77-1.44.77-2.84v-6.13h-1.82v-1.42h5.08v1.42h-1.69v7.05c0,2.32-1.69,4.36-5.06,4.36-3.41,0-5.15-1.72-5.15-4.31Z"/><path class="cls-1" d="M55.28,129.42h-.17v8.37h1.87v1.42h-5.18v-1.42h1.77v-9.66h-1.77v-1.42h4.66l5.83,8.96h.17v-7.54h-1.84v-1.42h5.18v1.42h-1.79v11.33h-2.17l-6.55-10.03Z"/><path class="cls-1" d="M74.53,137.79h1.69v1.42h-6.08v-1.42h1.92v-9.66h-1.92v-1.42h6.1v1.42h-1.72v5.03l4.91-5.03h-1.62v-1.42h5.13v1.42h-1.54l-3.66,3.64,4.38,6.03h1.44v1.42h-5.85v-1.42h1.49l-3.11-4.43-1.57,1.54v2.89Z"/><path class="cls-1" d="M94.37,137.79h1.92v-9.64h-1.92v-1.42h11.4v4.23h-1.22c-.6-2.32-.82-2.81-2.34-2.81h-3.46v4.06h1.19c1.25,0,1.39-.2,1.69-1.84h1.22v5.01h-1.22c-.27-1.69-.45-1.89-1.69-1.89h-1.19v4.33h3.39c1.77,0,2.02-.62,2.59-3.24h1.22v4.66h-11.58v-1.44h0Z"/><path class="cls-1" d="M117.31,126.7v1.39h-2.02v9.69h2.44c1.52,0,1.82-.32,2.71-3.44h1.12v4.85h-10.66v-1.42h1.92v-9.64h-1.92v-1.42h6.4v-.02Z"/><path class="cls-1" d="M126.12,137.79h1.94v-9.64h-1.94v-1.42h11.41v4.23h-1.22c-.6-2.32-.82-2.81-2.34-2.81h-3.46v4.06h1.19c1.27,0,1.42-.2,1.72-1.84h1.2v5.01h-1.2c-.27-1.69-.47-1.89-1.72-1.89h-1.19v4.33h3.39c1.79,0,2.02-.62,2.59-3.24h1.22v4.66h-11.58v-1.44Z"/><path class="cls-1" d="M142.65,137.79h1.94v-9.64h-1.94v-1.42h5.8c3.91,0,5.35,1.67,5.35,3.69,0,1.89-1.29,3.81-5.23,3.81h-1.54v3.56h2.14v1.42h-6.52v-1.42ZM148.38,132.85c2.19,0,2.71-.95,2.71-2.44,0-1.34-.6-2.29-2.71-2.29h-1.37v4.76h1.37v-.02Z"/><path class="cls-1" d="M158.21,137.79h1.94v-9.66h-1.94v-1.42h6.15v1.42h-1.77v3.93h5.35v-3.93h-1.74v-1.42h6.13v1.42h-1.94v9.66h1.94v1.42h-6.13v-1.42h1.74v-4.41h-5.35v4.41h1.77v1.42h-6.15v-1.42Z"/><path class="cls-1" d="M184.53,135h-4.41l-.97,2.79h1.59v1.42h-4.58v-1.42h1.37l4.18-11.15h2.44l4.06,11.15h1.62v1.42h-6.17v-1.42h1.84l-.97-2.79ZM180.58,133.73h3.51l-1.67-4.93h-.07l-1.77,4.93Z"/><path class="cls-1" d="M197.08,129.42h-.17v8.37h1.87v1.42h-5.18v-1.42h1.79v-9.66h-1.79v-1.42h4.66l5.85,8.96h.15v-7.54h-1.84v-1.42h5.18v1.42h-1.79v11.33h-2.17l-6.55-10.03Z"/><path class="cls-1" d="M214.59,137.79h2.12v-9.86h-.67c-1.59,0-1.94.52-2.79,3.46h-1.14v-4.68h11.68v4.71h-1.17c-.82-2.96-1.2-3.46-2.79-3.46h-.67v9.86h2.12v1.42h-6.65v-1.44h-.03Z"/></svg>