<?xml version="1.0" encoding="UTF-8"?><svg id="a" xmlns="http://www.w3.org/2000/svg" viewBox="0 0 281.591 218.986">
<title>e.l.f._Beauty-logo - brandlogos.net</title><path d="M209.821,51.727C211.101,16.5077,228.333,0,251.372,0c12.011,0,23.267,5.7762,30.219,16.7517l-5.088,3.6314c-4.652-7.7583-13.135-12.965-22.846-12.965-12.551,0-23.075,8.6976-25.878,20.3905-1.583,6.183-2.515,12.9577-2.411,23.8444.005.9188-.023,16.4922-.042,27.2456l-.001.1523v.0217c-.009,5.3495-.017,9.468-.017,9.9224l37.912-.0074v8.2834l-37.919-.0222-.015,119.8512h-15.435l-.074-119.8586v-8.6688c-.001-4.5066-.005-35.5238.044-36.8456ZM151.46,217.1h15.532V.9028h-3.351c-6.294,0-12.181,6.0942-12.181,13.4458v202.7514ZM192.76,213.084c0,2.366-1.916,4.274-4.275,4.274-2.367,0-4.275-1.915-4.275-4.274,0-2.367,1.916-4.275,4.275-4.275,2.367,0,4.275,1.915,4.275,4.275ZM248.392,217.358c2.367,0,4.282-1.908,4.282-4.274,0-2.36-1.915-4.275-4.282-4.275-2.359,0-4.275,1.908-4.275,4.275,0,2.359,1.916,4.274,4.275,4.274ZM131.839,213.084c0,2.366-1.915,4.274-4.275,4.274s-4.282-1.915-4.282-4.274c0-2.367,1.916-4.275,4.282-4.275s4.275,1.915,4.275,4.275ZM64.692,210.925c-23.7852,0-48.7464-20.273-48.2361-60.824h99.3201s.051-.607-.023-2.219c-1.553-34.961-22.1134-59.6482-56.1789-59.6482C26.8472,88.2338,0,116.309,0,152.438c0,37.956,27.6163,66.548,63.1537,66.548,22.2469,0,38.3473-11.693,46.5353-20.79l-4.6-4.681c-6.1391,5.717-18.9192,17.41-40.397,17.41ZM16.4559,142.823c2.0413-31.455,25.723-47.8293,43.3696-47.8293,21.9955,0,39.1244,18.7113,40.145,47.8293H16.4559Z" style="fill:#070707; fill-rule:evenodd;"/></svg>