<?xml version="1.0" encoding="UTF-8"?><svg id="uuid-f9c92fb0-7a33-4e54-b208-2426835f56da" xmlns="http://www.w3.org/2000/svg" viewBox="0 0 471.53 83.24">
<title>Laneige logo - Brandlogos.net</title><path d="M97.43,1.92c-.19-.38-.58-.62-.96-.62s-.77.24-.96.62c-.48,1.15-32.64,79.65-32.64,79.65h8.24c2.01,0,3.12-.91,3.98-2.97l21.33-52h0l21.33,52c.86,2.06,2.01,2.97,3.98,2.97h8.24S97.91,3.07,97.43,1.92Z" style="fill:#6691ff;"/><rect x="303.17" y="2.4" width="11.17" height="79.17" style="fill:#6691ff;"/><path d="M11.17,2.49H3.83C1.63,2.49,0,4.03,0,6.52v75.05h36.23c3.64,0,5.03-1.44,6.57-3.83,1.49-2.35,3.69-6.52,3.69-6.52H11.17V2.49Z" style="fill:#6691ff;"/><path d="M195.53,58.32S152.06,3.12,151.15,2.01c-.48-.58-.67-.72-1.05-.72-.62,0-.91.48-.91,1.05v79.22h11.12V30.58s36.52,46.34,38.53,48.88c1.29,1.63,2.4,2.11,3.79,2.11h3.69V2.49h-10.88l.1,55.83Z" style="fill:#6691ff;"/><path d="M278.01,75.05c-1.49-2.35-2.88-3.69-6.28-3.79h-27.75v-25.16h32.06v-9.78h-32.06V12.84h27.56c3.55,0,4.89-1.44,6.42-3.79,1.58-2.44,3.69-6.57,3.69-6.57h-48.98v79.07h48.83s-1.29-2.59-2.54-4.84c-.34-.62-.72-1.2-1.05-1.73l.1.05Z" style="fill:#6691ff;"/><path d="M467.88,75.05c-1.49-2.35-2.88-3.69-6.28-3.79h-27.75v-25.16h32.06v-9.78h-32.06V12.84h27.56c3.55,0,4.89-1.44,6.42-3.79,1.58-2.44,3.69-6.57,3.69-6.57h-48.98v79.07h48.83s-1.29-2.59-2.54-4.84c-.34-.62-.72-1.2-1.05-1.73l.1.05Z" style="fill:#6691ff;"/><path d="M398.2,20.18c-1.49-4.55-4.46-9.11-7.72-12.27-2.4-2.35-4.5-3.74-7.57-5.18-4.03-1.82-8.87-2.73-13.8-2.73-22.33,0-33.59,18.74-33.59,41.84s3.07,24.49,10.59,32.11c5.32,5.42,12.84,9.3,23,9.3s22.67-6.81,26.69-14.86c.96-1.92,1.73-3.4,2.4-5.56,1.87-6.18,1.92-13.32,1.92-21.04s0-2.73,0-2.73h-12.65l-18.74.1c.53,1.01,1.77,3.21,3.21,5.61,1.58,2.59,3.02,4.12,6.76,4.12h9.87s0,1.82-.19,3.98c-.48,5.7-1.68,10.69-6.04,14.66-3.5,3.21-8.58,4.6-13.28,4.6-5.99,0-10.88-2.2-14.76-6.13-6.33-6.42-7.33-16.49-7.33-24.2s2.01-30.91,22.52-30.91c2.92,0,5.85.43,8.48,1.77,3.02,1.53,5.51,3.83,7.24,6.71,1.39,2.25,2.64,4.46,5.61,4.46h8.43c-.1-.48-.96-3.21-1.15-3.69l.1.05Z" style="fill:#6691ff;"/></svg>