<?xml version="1.0" encoding="UTF-8"?><svg id="a" xmlns="http://www.w3.org/2000/svg" viewBox="0 0 119.377 12.946">
<title>MAC Cosmetics logo - Brandlogos.net</title><path d="M18.486,6.81L3.273.35s-.474-.215-1.229-.215C.917.1349,0,.686,0,1.362v10.7679c0,.447.551.816,1.229.816.675,0,1.226-.369,1.226-.816V2.665l12.871,5.476,3.16-1.331ZM117.74,10.3589h-29.57c-3.47,0-6.269-1.7469-6.269-3.818,0-2.068,2.799-3.816,6.269-3.816h29.57c.905,0,1.637-.549,1.637-1.226s-.732-1.226-1.637-1.226h-29.57c-4.966,0-8.857,2.751-8.857,6.268,0,1.054.334,2.065,1.12,3.105L61.403.42c-.562-.272-1.092-.42-1.715-.42-.62,0-1.151.1479-1.711.42l-19.55,9.475V1.362c0-.676-.912-1.2271-2.04-1.2271-.756,0-1.228.215-1.228.215l-19.104,8.097,1.637.691c.509.214.975.3069,1.523.3069.551,0,1.017-.093,1.523-.3069l15.241-6.473v9.465c0,.447.547.816,1.226.816h.102c.305,0,.582-.066.807-.172L59.688,2.316l9.924,4.811h-18.419l-4.891,2.37h28.202l6.759,3.277c.223.106.502.172.808.172.729,0,1.317-.369,1.317-.816,0-.058-.004-.181-.112-.335,1.301.588,2.945,1.036,4.894,1.014h29.57c.905,0,1.637-.551,1.637-1.226,0-.677-.732-1.224-1.637-1.224M76.043,3.542c-1.205,0-2.183.488-2.183,1.092,0,.601.978,1.089,2.183,1.089,1.204,0,2.181-.488,2.181-1.089,0-.604-.977-1.092-2.181-1.092M45.518,4.634c0,.601-.978,1.089-2.182,1.089-1.203,0-2.182-.488-2.182-1.089,0-.604.979-1.092,2.182-1.092,1.204,0,2.182.488,2.182,1.092"/></svg>