<?xml version="1.0" encoding="utf-8"?>
<!-- Generator: Adobe Illustrator 19.0.0, SVG Export Plug-In . SVG Version: 6.00 Build 0)  -->
<svg version="1.1" id="layer" xmlns="http://www.w3.org/2000/svg" xmlns:xlink="http://www.w3.org/1999/xlink" x="0px" y="0px"
	 viewBox="-153 -46 652 652" style="enable-background:new -153 -46 652 652;" xml:space="preserve">
<path d="M460.2,309.3h7v1.5h-5.4v3.7h5.2v1.5h-5.2v5h5.4v1.5h-7 M448.5,322.4h-2l-3.8-5.5h-0.7v5.5h-1.6v-13.1h2
	c1.2,0,2.4,0,3.4,0.6c1.1,0.6,1.7,1.9,1.7,3.1c0,1.9-1.2,3.4-3.1,3.7L448.5,322.4z M442.1,315.5h0.5c1.7,0,3.4-0.3,3.4-2.4
	c0-2.1-1.9-2.3-3.5-2.3h-0.4V315.5z M419.9,319.1l-1.5,3.3h-1.7l6.2-13.7l6.2,13.7h-1.7l-1.5-3.3H419.9z M422.8,312.3l-2.3,5.3h4.6
	L422.8,312.3z M405.8,311.8c-0.9-0.8-2.2-1.3-3.4-1.3c-2.9,0-5.1,2.4-5.1,5.4c0,2.9,2.2,5.3,5.1,5.3c1.3,0,2.5-0.5,3.5-1.4v1.9
	c-1,0.6-2.3,0.9-3.4,0.9c-3.7,0-6.8-3-6.8-6.8c0-3.9,3.1-6.9,6.9-6.9c1.1,0,2.3,0.3,3.3,0.9V311.8z M372.3,308.7L382,319v-9.7h1.6
	v13.7l-9.8-10.3v9.8h-1.6V308.7z M358.1,309.3h1.6v13.1h-1.6V309.3z M344.6,309.3h2.1l-5.8,5.9l5.9,7.2h-2.2l-4.9-6.1l-0.6,0.6v5.5
	h-1.6v-13.1h1.6v5.7L344.6,309.3z M323.6,311.8c-0.5-0.8-1.1-1.2-2.1-1.2c-1,0-2.2,0.7-2.2,1.9c0,1,1,1.6,1.8,1.9l0.9,0.4
	c1.8,0.7,3.2,1.8,3.2,4c0,2.4-1.8,4.1-4.2,4.1c-2.1,0-3.7-1.6-4-3.7l1.6-0.3c0,1.4,1.1,2.5,2.5,2.5c1.4,0,2.4-1.2,2.4-2.6
	c0-1.4-1.1-2-2.2-2.5l-0.9-0.4c-1.5-0.6-2.8-1.5-2.8-3.3c0-2.1,1.9-3.4,3.8-3.4c1.4,0,2.6,0.7,3.3,2L323.6,311.8z M287.2,320.9h3.9
	v1.5h-5.6v-13.1h1.6V320.9z M265,319.1l-1.5,3.3h-1.7l6.2-13.7l6.2,13.7h-1.7l-1.5-3.3H265z M267.9,312.3l-2.3,5.3h4.6L267.9,312.3z
	 M239.1,308.7l9.8,10.3v-9.7h1.6v13.7l-9.8-10.3v9.8h-1.6V308.7z M227.4,315.8c0,3.9-3.1,6.8-6.8,6.8c-3.8,0-6.8-2.9-6.8-6.8
	c0-3.8,3.1-6.8,6.8-6.8C224.3,309,227.4,312.1,227.4,315.8 M225.7,315.8c0-2.9-2.1-5.3-5.2-5.3c-3,0-5.2,2.4-5.2,5.3
	c0,3,2.4,5.3,5.2,5.3C223.4,321.1,225.7,318.8,225.7,315.8 M200.3,309.3h1.6v13.1h-1.6V309.3z M186.5,311.8
	c-0.5-0.8-1.1-1.2-2.1-1.2c-1,0-2.2,0.7-2.2,1.9c0,1,1,1.6,1.8,1.9l0.9,0.4c1.8,0.7,3.2,1.8,3.2,4c0,2.4-1.8,4.1-4.2,4.1
	c-2.1,0-3.7-1.6-4-3.7l1.6-0.3c0,1.4,1.1,2.5,2.5,2.5c1.4,0,2.4-1.2,2.4-2.6c0-1.4-1.1-2-2.2-2.5l-0.9-0.4c-1.5-0.6-2.8-1.5-2.8-3.3
	c0-2.1,1.9-3.4,3.8-3.4c1.4,0,2.6,0.7,3.3,2L186.5,311.8z M166.9,311.8c-0.5-0.8-1.1-1.2-2.1-1.2c-1,0-2.2,0.7-2.2,1.9
	c0,1,1,1.6,1.8,1.9l0.9,0.4c1.8,0.7,3.2,1.8,3.2,4c0,2.4-1.8,4.1-4.2,4.1c-2.1,0-3.7-1.6-4-3.7l1.6-0.3c0,1.4,1.1,2.5,2.5,2.5
	c1.4,0,2.4-1.2,2.4-2.6c0-1.4-1.1-2-2.2-2.5l-0.9-0.4c-1.5-0.6-2.8-1.5-2.8-3.3c0-2.1,1.9-3.4,3.8-3.4c1.4,0,2.6,0.7,3.3,2
	L166.9,311.8z M141.9,309.3h7v1.5h-5.4v3.7h5.2v1.5h-5.2v5h5.4v1.5h-7V309.3z M125,310.8v3.7h4.5v1.5H125v6.4h-1.6v-13.1h6.3v1.5
	H125z M111.5,315.8c0,3.9-3,6.8-6.8,6.8c-3.8,0-6.8-2.9-6.8-6.8c0-3.8,3.1-6.8,6.8-6.8C108.4,309,111.5,312.1,111.5,315.8
	 M109.8,315.8c0-2.9-2.1-5.3-5.2-5.3c-3.1,0-5.2,2.4-5.2,5.3c0,3,2.4,5.3,5.2,5.3C107.5,321.1,109.8,318.8,109.8,315.8 M87.2,322.4
	h-2l-3.8-5.5h-0.7v5.5h-1.6v-13.1h2c1.2,0,2.4,0,3.4,0.6c1.1,0.6,1.7,1.9,1.7,3.1c0,1.9-1.2,3.4-3.1,3.7L87.2,322.4z M80.7,315.5
	h0.5c1.7,0,3.4-0.3,3.4-2.4c0-2.1-1.9-2.3-3.5-2.3h-0.4V315.5z M61.8,322.4h-1.6v-13.1h1.9c4,0,5.2,1.4,5.2,3.8
	c0,2.8-2.1,3.8-4.6,3.8h-0.9V322.4z M61.8,315.4h0.5c1.7,0,3.4-0.3,3.4-2.4c0-2.1-1.9-2.3-3.5-2.3h-0.4V315.4z M23,309.3h2.7
	c4,0,7.3,2.1,7.3,6.5c0,4.5-3.2,6.6-7.3,6.6H23V309.3z M24.6,320.9h0.6c3.3,0,6.2-1.3,6.2-5.1c0-3.8-2.9-5.1-6.2-5.1h-0.6V320.9z
	 M3.8,309.3h7v1.5H5.4v3.7h5.2v1.5H5.4v5h5.4v1.5h-7V309.3z M-8.5,311.8c-0.9-0.8-2.2-1.3-3.4-1.3c-2.9,0-5.1,2.4-5.1,5.4
	c0,2.9,2.2,5.3,5.1,5.3c1.3,0,2.5-0.5,3.5-1.4v1.9c-1,0.6-2.3,0.9-3.4,0.9c-3.7,0-6.8-3-6.8-6.8c0-3.9,3.1-6.9,6.9-6.9
	c1.1,0,2.3,0.3,3.3,0.9V311.8z M-41.9,308.7l9.8,10.3v-9.7h1.6v13.7l-9.8-10.3v9.8h-1.6V308.7z M-62.4,319.1l-1.5,3.3h-1.7l6.2-13.7
	l6.2,13.7h-1.7l-1.5-3.3H-62.4z M-59.4,312.3l-2.3,5.3h4.6L-59.4,312.3z M-79.6,319l3.9-9.7h1.8l-5.6,13.8l-5.7-13.8h1.8L-79.6,319z
	 M-105.8,309.3h2.7c4,0,7.3,2.1,7.3,6.5c0,4.5-3.2,6.6-7.3,6.6h-2.6V309.3z M-104.2,320.9h0.6c3.3,0,6.2-1.3,6.2-5.1
	c0-3.8-2.9-5.1-6.2-5.1h-0.6V320.9z M-126.3,319.1l-1.5,3.3h-1.7l6.2-13.7l6.2,13.7h-1.7l-1.5-3.3H-126.3z M-123.3,312.3l-2.3,5.3
	h4.6L-123.3,312.3z M-112.9,248c3.8-3.2,16-11.1,31.3-9v40.1h-29c5.2-2,10.5-4.6,14.1-7.3c5.2-3.9,14.1-12.3,11.1-20
	c-3.2-8.4-16.7-4.7-23.5,0.3c6.9-3.5,15.6-3.9,17.3-0.7c1.6,3-1.4,7.5-5.9,11.3c-3.8,3.3-16,11.1-31.3,9v-40.1h29
	c-5.2,2-10.5,4.6-14.1,7.3c-5.3,3.9-14.1,12.3-11.2,20c3.2,8.4,16.7,4.7,23.5-0.3c-6.9,3.5-15.6,3.9-17.3,0.7
	C-120.4,256.4-117.4,251.8-112.9,248 M-79.7,228.4h1.2v53.9h-53.4v-53.9H-79.7z M-131,281.4h51.6v-52.1H-131V281.4z M465.2,251.3
	c-0.3-3.2-2.4-6.2-5.8-6.2c-3.9,0-6.1,2.3-6.1,6.2c0,8.1,14.9,5.7,14.9,17.4c0,6.7-5.6,10.2-12,10.2c-2.8,0-5.5-1-7.9-2.2
	c-0.3-2.5-0.6-4.9-0.9-7.4l1.4-0.3c0.6,4.1,3,7.8,7.7,7.8c3.4,0,6.1-2.1,6.1-5.6c0-8.6-14.6-6-14.6-17.7c0-6.3,4.6-10.1,11-10.1
	c1.4,0,5.6,0.5,7.1,0.7c0,2.3,0.2,4.6,0.5,7L465.2,251.3z M418.1,273.4c0,2,1.4,2.5,3,2.7c2,0.2,4.3,0.2,6.5-0.1
	c2.1-0.2,3.9-1.4,4.8-2.6c0.8-1.1,1.2-2.4,1.5-3.5h1.5c-0.5,2.8-1.2,5.5-1.8,8.3c-4.4,0-8.7-0.2-13.1-0.2c-4.3,0-8.7,0.2-13.1,0.2
	v-1.5h0.7c1.8,0,3.7-0.3,3.7-3.3v-25.1c0-2.5-1.9-2.8-3.7-2.8h-0.7v-1.5c2.6,0,5.2,0.2,7.8,0.2c2.6,0,5.1-0.2,7.6-0.2v1.5h-1.2
	c-1.9,0-3.4,0.1-3.4,2.6V273.4z M370.3,271.2c-0.5,1.7-1.1,2.9-1.1,3.8c0,1.4,2.1,1.7,3.7,1.7h0.6l0,1.5c-2-0.1-4-0.2-6-0.2
	c-1.8,0-3.5,0.1-5.3,0.2v-1.5h0.3c1.9,0,3.6-1.1,4.3-3.2l7.9-22.4c0.7-1.8,1.5-4.3,1.8-6.1c1.6-0.5,3.6-1.5,4.5-2.1l0.4-0.1l0.3,0.1
	l0.5,1.2l9.1,25.5c0.6,1.7,1.2,3.5,1.8,5c0.6,1.3,1.7,1.9,3.3,1.9h0.3v1.5c-2.2-0.1-4.4-0.2-6.8-0.2c-2.4,0-4.9,0.1-7.4,0.2v-1.5
	h0.5c1.1,0,3.1-0.2,3.1-1.4c0-0.6-0.4-2-1-3.5l-1.9-5.7h-11.2L370.3,271.2z M377.5,249.6h-0.1l-4.6,13.8h9.2L377.5,249.6z
	 M349.3,254.1c-1.4-4.7-3.7-8.6-11.1-8.6c-8.1,0-12.4,6.3-12.4,14.8c0,8.2,4.2,16.4,13.6,16.4c5.3,0,8.8-3.3,10.1-8.2l1.4,0.2
	c-0.6,2.6-1,5.3-1.2,7.9c-2.9,1.2-6.8,2.2-11.3,2.2c-11.2,0-19.4-6-19.4-18.2c0-10.9,9-17.3,19.1-17.3c5.8,0,7.7,1.7,12.4,2.4
	c-0.1,2.7,0,5.4,0.4,8.1L349.3,254.1z M292.1,276.7h0.7c1.8,0,3.7-0.3,3.7-2.8v-25.6c0-2.5-1.9-2.8-3.7-2.8h-0.7v-1.5
	c1.9,0,4.9,0.2,7.3,0.2c2.5,0,5.5-0.2,7.8-0.2v1.5h-0.7c-1.8,0-3.6,0.2-3.6,2.8v25.6c0,2.5,1.9,2.8,3.6,2.8h0.7v1.5
	c-2.4,0-5.4-0.2-7.8-0.2c-2.4,0-5.4,0.2-7.3,0.2V276.7z M253.5,246.5c-3.7,0-3.9,0.9-4.6,4.4h-1.5c0.2-1.4,0.5-2.7,0.6-4.1
	c0.2-1.4,0.3-2.7,0.3-4.1h1.2c0.4,1.5,1.6,1.4,3,1.4H278c1.3,0,2.6-0.1,2.7-1.5l1.2,0.2c-0.2,1.3-0.4,2.6-0.6,3.9
	c-0.1,1.3-0.1,2.6-0.1,4l-1.5,0.5c-0.1-1.8-0.3-4.7-3.6-4.7H268v25.9c0,3.8,1.7,4.2,4.1,4.2h0.9v1.5c-1.9,0-5.4-0.2-8.1-0.2
	c-3,0-6.4,0.2-8.4,0.2v-1.5h0.9c2.7,0,4.1-0.3,4.1-4.1v-26H253.5z M205.1,249.1c0-3.5-1.8-3.5-3.8-3.5h-0.6v-1.5
	c2.2,0,4.8,0.2,7.9,0.2c3,0,5.5-0.2,7.4-0.2v1.5h-0.6c-2,0-3.9,0.1-3.9,3.5v16.8c0,6.2,2.3,10.5,9.4,10.5c6.5,0,9.4-4.1,9.4-10.7
	v-16.6c0-3.5-1.9-3.5-3.5-3.5h-1v-1.5c2,0,4,0.2,6,0.2c1.9,0,3.8-0.2,5.7-0.2v1.5h-1c-1.4,0-3.2,0.1-3.2,3.5v15.6
	c0,11-6,14.2-13.3,14.2c-9.5,0-14.8-3.4-14.8-12.1V249.1z M161.6,276.7h0.7c1.8,0,3.7-0.3,3.7-2.8v-25.6c0-2.5-1.9-2.8-3.7-2.8h-0.7
	v-1.5c3,0,8.2,0.2,12.3,0.2c4.2,0,9.3-0.2,12.7-0.2c-0.1,2.1-0.1,5.3,0.1,7.5l-1.5,0.4c-0.3-3.2-0.8-5.7-6.1-5.7h-6.8V259h5.9
	c3,0,3.6-1.6,3.9-4.3h1.5c-0.1,1.9-0.1,3.8-0.1,5.7c0,1.9,0,3.7,0.1,5.6l-1.5,0.3c-0.3-2.9-0.4-4.8-3.9-4.8h-5.9v11.4
	c0,3.2,2.9,3.2,6,3.2c5.9,0,8.6-0.4,10.1-5.9l1.3,0.3c-0.6,2.6-1.2,5.2-1.7,7.8c-3.2,0-8.9-0.2-13.3-0.2c-4.4,0-10.4,0.2-13.1,0.2
	V276.7z M145,265.9l2,0.5l0,0.3l-1.6,9.4c-2.7,1.7-9.9,3.4-14.2,3.4c-14.9,0-24.6-9.4-24.6-23.9c0-12.3,11-22.4,24.4-22.4
	c5,0,9.9,1.5,15.1,3.4l0.2,0.1l0.7,9.5h-2.1l0-0.2c-1.1-6.6-5.7-10-13.3-10c-6.6,0-17.7,4.1-17.7,19.6c0,11.9,8.4,21.5,18.7,21.5
	c6.3,0,11.3-4.3,12.5-10.6L145,265.9z M-40.4,253.2c5.3,2.6,10.7,5.3,10.7,13.1c0,8.4-7.9,13-15.2,13c-3.4,0-6.8-0.8-9.9-2.2
	l-0.1-0.1l-1.3-9.6h2l0.1,0.2c1,4.5,4.4,9.1,9.6,9.1c4.9,0,8.4-3.4,8.4-8c0-5.3-4.1-7.4-8.4-9.6c-4.9-2.5-10.4-5.4-10.4-13.4
	c0-7.8,5.3-12.6,13.9-12.6c2,0,4,0.3,6,0.7l2,0.3l1.1,8.6h-2l-0.1-0.2c-0.7-4.3-3.5-6.7-7.9-6.7c-4.4,0-7.3,3-7.3,7.7
	C-49.3,248.8-44.9,250.9-40.4,253.2 M85.8,268.5L85.8,268.5l0.1-18.4c0-4-2.8-4.6-4.3-4.6h-1.1v-1.5c2.3,0,4.6,0.2,6.9,0.2
	c2.1,0,4.1-0.2,6.1-0.2v1.5h-0.7c-2.1,0-4.4,0.4-4.4,6.2v22.2c0,1.7,0,3.4,0.3,4.9h-1.9l-25.5-28V271c0,4.2,0.9,5.7,4.7,5.7h0.8v1.5
	c-2.2,0-4.2-0.2-6.4-0.2c-2.3,0-4.5,0.2-6.7,0.2v-1.5h0.7c3.4,0,4.4-2.3,4.4-6.2v-20.5c0-2.7-2.3-4.4-4.5-4.4h-0.6v-1.5
	c1.9,0,3.8,0.2,5.7,0.2c1.5,0,2.9-0.2,4.4-0.2L85.8,268.5z M28.3,276.7h0.7c1.8,0,3.7-0.3,3.7-2.8v-25.6c0-2.5-1.9-2.8-3.7-2.8h-0.7
	v-1.5c2,0,4.9,0.2,7.4,0.2c2.4,0,5.4-0.2,7.7-0.2v1.5h-0.7c-1.8,0-3.7,0.2-3.7,2.8v25.6c0,2.5,1.9,2.8,3.7,2.8h0.7v1.5
	c-2.4,0-5.3-0.2-7.8-0.2c-2.4,0-5.3,0.2-7.3,0.2V276.7z M-16.2,276.7h0.7c1.8,0,3.6-0.3,3.6-2.8v-25.6c0-2.5-1.9-2.8-3.6-2.8h-0.7
	v-1.5c2,0,4.9,0.2,7.5,0.2c2.7,0,5.8-0.2,7.9-0.2v1.5h-0.6c-1.5,0-4.1,0.1-4.1,2.8v25.6c0,2.7,2.6,2.8,4.1,2.8h0.6v1.5
	c-2,0-5.2-0.2-7.9-0.2c-2.5,0-5.5,0.2-7.5,0.2V276.7z M4,244.1c2.1,0,4.2,0.2,6.3,0.2c2.2,0,4.4-0.2,6.6-0.2v1.5h-0.7
	c-3.2,0-5.9,2.2-8,4.3l-7.8,8.3L13.2,274c1,1.5,2.6,2.7,4.5,2.7v1.5c-1.6,0-3.4-0.1-5.1-0.1c-1.6,0-3.1,0.1-4.7,0.1
	c-0.5-0.9-1.9-2.9-2.6-3.7l-10.7-13.2l10.4-11.4c0.6-0.6,2.2-2.3,2.2-3.3c0-1-2.1-1-2.8-1H4V244.1z"/>
</svg>
